<svg xmlns="http://www.w3.org/2000/svg" viewBox="0 0 1157 991">
<path d="M 12,945 L 13,955 L 19,967 L 27,974 L 33,977 L 40,978 L 41,979 L 1112,979 L 1113,978 L 1120,977 L 1128,973 L 1137,963 L 1140,956 L 1140,953 L 1141,952 L 1141,941 L 1140,940 L 1139,934 L 1135,927 L 1125,918 L 1115,914 L 40,914 L 39,915 L 33,916 L 27,919 L 21,924 L 16,931 L 16,933 L 13,939 L 13,944 Z M 986,947 L 988,945 L 1097,945 L 1098,946 L 1099,949 L 1096,952 L 988,952 L 986,950 Z M 55,947 L 57,945 L 166,945 L 167,946 L 168,949 L 165,952 L 58,952 L 55,949 Z M 936,935 L 941,935 L 943,937 L 943,939 L 945,942 L 945,944 L 946,945 L 946,947 L 947,948 L 947,950 L 948,951 L 948,953 L 949,954 L 949,956 L 950,957 L 950,958 L 949,959 L 945,959 L 942,954 L 935,954 L 932,959 L 928,959 L 927,958 L 927,957 L 928,956 L 928,954 L 929,953 L 929,951 L 930,950 L 930,948 L 932,945 L 932,943 L 933,942 L 933,940 L 934,939 L 934,937 Z M 938,942 L 938,944 L 937,945 L 937,947 L 936,948 L 936,949 L 937,950 L 940,950 L 941,949 L 941,948 L 940,947 L 940,945 L 939,944 L 939,942 Z M 773,935 L 786,935 L 787,936 L 789,936 L 793,940 L 793,942 L 794,943 L 794,950 L 793,951 L 793,953 L 792,954 L 792,955 L 790,957 L 789,957 L 786,959 L 773,959 L 772,958 L 772,936 Z M 779,939 L 778,940 L 778,954 L 784,954 L 785,953 L 786,953 L 786,952 L 788,950 L 788,945 L 787,944 L 786,941 L 785,941 L 784,940 L 781,940 L 780,939 Z M 541,935 L 546,935 L 548,937 L 548,939 L 549,940 L 549,942 L 551,945 L 551,947 L 552,948 L 552,950 L 553,951 L 553,953 L 554,954 L 554,956 L 555,957 L 555,958 L 554,959 L 550,959 L 549,958 L 548,955 L 547,955 L 546,954 L 540,954 L 537,959 L 533,959 L 532,958 L 532,957 L 533,956 L 533,954 L 534,953 L 534,951 L 535,950 L 535,948 L 537,945 L 537,943 L 538,942 L 538,940 L 539,939 L 539,937 Z M 543,942 L 543,944 L 542,945 L 542,947 L 541,948 L 541,949 L 542,950 L 545,950 L 546,949 L 546,948 L 545,947 L 545,945 L 544,944 L 544,942 Z M 901,934 L 904,934 L 906,936 L 906,953 L 909,955 L 910,955 L 911,954 L 913,954 L 913,953 L 914,952 L 914,936 L 916,934 L 919,934 L 920,935 L 920,954 L 919,955 L 919,956 L 917,958 L 916,958 L 913,960 L 907,960 L 906,959 L 903,958 L 901,956 L 901,955 L 900,954 L 900,935 Z M 875,935 L 877,935 L 878,934 L 884,934 L 885,935 L 888,936 L 891,939 L 889,941 L 888,941 L 887,942 L 886,942 L 884,940 L 883,940 L 882,939 L 879,939 L 875,943 L 875,951 L 878,954 L 880,954 L 881,955 L 882,954 L 884,954 L 886,951 L 885,950 L 881,950 L 880,949 L 880,947 L 882,945 L 890,945 L 891,946 L 891,958 L 890,959 L 888,959 L 887,958 L 886,958 L 885,959 L 883,959 L 882,960 L 878,960 L 877,959 L 875,959 L 870,954 L 870,953 L 869,952 L 869,942 L 870,941 L 870,940 Z M 850,934 L 854,934 L 856,936 L 856,938 L 857,939 L 857,941 L 858,942 L 858,944 L 859,945 L 859,947 L 860,948 L 860,950 L 861,951 L 861,953 L 863,956 L 863,958 L 862,959 L 858,959 L 855,954 L 849,954 L 848,955 L 847,955 L 847,957 L 845,959 L 841,959 L 840,958 L 841,957 L 841,954 L 842,953 L 842,951 L 844,948 L 844,946 L 845,945 L 845,943 L 846,942 L 846,940 L 847,939 L 848,936 Z M 851,942 L 851,944 L 850,945 L 850,947 L 849,948 L 849,949 L 850,950 L 854,950 L 854,947 L 853,946 L 853,944 L 852,943 L 852,942 Z M 804,934 L 818,934 L 820,936 L 819,937 L 820,938 L 818,940 L 808,940 L 808,944 L 817,944 L 818,945 L 818,948 L 817,949 L 809,949 L 808,950 L 808,954 L 819,954 L 820,955 L 820,958 L 819,959 L 803,959 L 802,958 L 802,936 Z M 737,934 L 743,934 L 744,935 L 746,935 L 749,937 L 749,938 L 746,941 L 745,941 L 743,939 L 738,939 L 737,940 L 737,942 L 738,943 L 739,943 L 740,944 L 743,944 L 744,945 L 746,945 L 750,949 L 750,954 L 749,955 L 749,956 L 747,958 L 746,958 L 745,959 L 743,959 L 742,960 L 737,960 L 736,959 L 734,959 L 730,955 L 733,952 L 734,952 L 736,954 L 738,954 L 739,955 L 741,955 L 744,953 L 744,951 L 743,951 L 740,949 L 737,949 L 736,948 L 735,948 L 731,944 L 731,939 L 735,935 L 736,935 Z M 708,934 L 714,934 L 715,935 L 717,935 L 722,940 L 722,941 L 723,942 L 723,945 L 724,946 L 724,948 L 723,949 L 723,952 L 722,953 L 722,954 L 718,958 L 717,958 L 716,959 L 714,959 L 713,960 L 709,960 L 708,959 L 706,959 L 705,958 L 704,958 L 701,955 L 701,954 L 700,953 L 700,951 L 699,950 L 699,943 L 700,942 L 701,939 L 704,936 L 705,936 Z M 710,939 L 709,940 L 708,940 L 706,942 L 706,944 L 705,945 L 705,949 L 706,950 L 706,952 L 708,954 L 709,954 L 710,955 L 712,955 L 713,954 L 714,954 L 716,952 L 716,951 L 717,950 L 717,943 L 713,939 Z M 676,934 L 690,934 L 692,936 L 692,938 L 690,940 L 689,939 L 686,939 L 685,940 L 681,940 L 680,941 L 681,942 L 681,944 L 689,944 L 691,946 L 691,948 L 690,949 L 681,949 L 681,954 L 691,954 L 692,955 L 692,958 L 691,959 L 676,959 L 675,958 L 675,935 Z M 648,934 L 654,934 L 655,935 L 656,935 L 657,934 L 658,935 L 661,935 L 662,936 L 663,936 L 665,938 L 665,939 L 666,940 L 666,945 L 665,946 L 665,947 L 663,949 L 662,949 L 662,951 L 663,952 L 663,953 L 666,958 L 665,959 L 661,959 L 659,957 L 659,956 L 657,954 L 657,953 L 655,950 L 653,950 L 653,955 L 652,956 L 652,958 L 651,959 L 648,959 L 647,958 L 647,937 L 646,936 Z M 652,940 L 652,945 L 653,945 L 654,946 L 655,945 L 659,945 L 660,944 L 660,941 L 659,940 L 658,940 L 657,939 L 653,939 Z M 620,934 L 630,934 L 631,935 L 634,935 L 637,938 L 637,939 L 638,940 L 638,945 L 634,949 L 634,951 L 635,952 L 635,953 L 638,958 L 637,959 L 633,959 L 630,956 L 630,955 L 627,950 L 625,950 L 624,951 L 624,957 L 625,958 L 624,959 L 619,959 L 618,958 L 618,936 Z M 625,939 L 625,945 L 631,945 L 632,944 L 632,941 L 631,940 L 630,940 L 629,939 Z M 598,934 L 600,934 L 601,935 L 602,935 L 604,937 L 604,939 L 606,942 L 606,944 L 607,945 L 607,947 L 608,948 L 608,950 L 609,951 L 609,953 L 610,954 L 610,956 L 611,957 L 611,958 L 610,959 L 606,959 L 603,954 L 596,954 L 595,955 L 595,957 L 593,959 L 589,959 L 588,958 L 588,957 L 590,954 L 590,952 L 591,951 L 591,949 L 592,948 L 592,946 L 593,945 L 593,943 L 595,940 L 595,938 L 596,937 L 596,936 Z M 599,942 L 599,944 L 598,945 L 598,948 L 597,949 L 598,950 L 601,950 L 602,949 L 602,948 L 601,947 L 601,945 L 600,944 L 600,942 Z M 570,934 L 576,934 L 577,935 L 578,935 L 582,939 L 582,940 L 580,942 L 579,942 L 578,943 L 577,942 L 577,941 L 576,941 L 574,939 L 571,939 L 567,943 L 567,950 L 568,951 L 568,952 L 570,954 L 573,955 L 574,954 L 575,954 L 578,951 L 581,952 L 583,954 L 579,958 L 578,958 L 575,960 L 571,960 L 570,959 L 568,959 L 567,958 L 566,958 L 562,954 L 562,953 L 561,952 L 561,950 L 560,949 L 560,945 L 561,944 L 561,941 L 567,935 L 569,935 Z M 492,934 L 493,935 L 494,935 L 495,934 L 496,935 L 497,935 L 498,936 L 498,937 L 499,938 L 499,939 L 502,944 L 503,943 L 503,942 L 504,941 L 504,940 L 505,939 L 506,936 L 508,934 L 512,934 L 513,935 L 513,936 L 511,938 L 510,941 L 508,943 L 507,946 L 505,948 L 505,958 L 504,959 L 500,959 L 499,958 L 499,949 L 498,948 L 498,947 L 496,945 L 496,944 L 495,943 L 494,940 L 492,938 L 492,937 L 491,936 L 491,935 Z M 455,934 L 469,934 L 470,935 L 470,939 L 469,940 L 468,939 L 466,939 L 465,940 L 459,940 L 459,944 L 468,944 L 469,945 L 469,948 L 468,949 L 459,949 L 459,954 L 470,954 L 471,955 L 471,958 L 470,959 L 454,959 L 453,958 L 453,936 Z M 444,934 L 445,935 L 445,939 L 444,940 L 438,940 L 438,958 L 437,959 L 433,959 L 432,958 L 432,940 L 427,940 L 425,938 L 425,936 L 426,935 L 443,935 Z M 401,934 L 412,934 L 413,935 L 415,935 L 418,938 L 418,939 L 419,940 L 419,944 L 418,945 L 418,946 L 414,950 L 416,952 L 416,953 L 419,958 L 418,959 L 413,959 L 411,957 L 411,956 L 410,955 L 410,954 L 409,953 L 408,950 L 406,950 L 405,951 L 405,958 L 404,959 L 400,959 L 399,958 L 399,936 Z M 405,940 L 405,945 L 412,945 L 412,944 L 413,943 L 412,940 L 409,940 L 408,939 L 406,939 Z M 376,934 L 381,934 L 382,935 L 384,935 L 385,936 L 386,936 L 389,939 L 389,940 L 390,941 L 390,943 L 391,944 L 391,950 L 390,951 L 390,953 L 384,959 L 382,959 L 381,960 L 377,960 L 376,959 L 374,959 L 373,958 L 372,958 L 367,953 L 367,950 L 366,949 L 366,944 L 367,943 L 367,941 L 369,939 L 369,938 L 370,937 L 371,937 L 373,935 L 375,935 Z M 377,939 L 376,940 L 375,940 L 373,943 L 373,951 L 376,954 L 379,955 L 380,954 L 382,954 L 383,953 L 383,952 L 385,949 L 385,945 L 382,940 L 381,940 L 380,939 Z M 355,935 L 359,939 L 359,940 L 360,941 L 360,943 L 359,944 L 359,946 L 355,950 L 347,950 L 346,951 L 346,958 L 345,959 L 341,959 L 340,958 L 340,936 L 341,935 L 346,935 L 347,934 L 352,934 L 353,935 Z M 347,939 L 346,940 L 346,945 L 347,946 L 350,946 L 351,945 L 352,945 L 353,944 L 353,941 L 352,940 L 350,940 L 349,939 Z M 319,934 L 325,934 L 326,935 L 328,935 L 331,938 L 328,941 L 327,941 L 324,939 L 320,939 L 319,940 L 319,942 L 320,943 L 321,943 L 322,944 L 325,944 L 326,945 L 329,946 L 331,948 L 331,949 L 332,950 L 332,953 L 331,954 L 330,957 L 329,958 L 328,958 L 327,959 L 325,959 L 324,960 L 319,960 L 318,959 L 316,959 L 315,958 L 314,958 L 312,956 L 312,955 L 315,952 L 316,952 L 318,954 L 320,954 L 321,955 L 323,955 L 326,953 L 326,951 L 325,951 L 324,950 L 322,950 L 321,949 L 319,949 L 318,948 L 315,947 L 313,944 L 313,939 L 317,935 L 318,935 Z M 285,934 L 286,935 L 287,935 L 288,934 L 290,936 L 290,937 L 292,939 L 292,940 L 294,942 L 294,943 L 296,945 L 296,946 L 298,949 L 298,936 L 300,934 L 301,935 L 302,934 L 304,936 L 304,958 L 303,959 L 298,959 L 297,958 L 297,957 L 295,955 L 294,952 L 292,950 L 291,947 L 289,945 L 289,958 L 288,959 L 284,959 L 283,958 L 283,936 Z M 262,934 L 266,934 L 268,936 L 268,937 L 269,938 L 269,940 L 270,941 L 270,943 L 271,944 L 271,946 L 273,949 L 273,952 L 274,953 L 274,955 L 276,958 L 275,959 L 271,959 L 267,954 L 261,954 L 259,956 L 259,958 L 258,959 L 254,959 L 253,958 L 253,956 L 254,955 L 254,953 L 255,952 L 255,950 L 257,947 L 257,945 L 258,944 L 258,942 L 259,941 L 259,939 L 260,938 L 260,936 Z M 264,942 L 264,943 L 263,944 L 263,946 L 262,947 L 262,950 L 266,950 L 267,949 L 266,948 L 266,946 L 265,945 L 265,943 Z M 228,934 L 231,934 L 232,935 L 234,935 L 235,934 L 238,934 L 239,935 L 242,935 L 246,939 L 246,945 L 245,946 L 245,947 L 243,949 L 242,949 L 242,951 L 243,952 L 244,955 L 246,957 L 246,958 L 245,959 L 241,959 L 239,957 L 239,956 L 237,954 L 237,953 L 235,950 L 233,950 L 233,955 L 232,956 L 232,958 L 231,959 L 228,959 L 227,958 L 227,935 Z M 233,939 L 233,945 L 239,945 L 240,944 L 240,941 L 239,940 L 236,940 L 235,939 Z M 200,934 L 218,934 L 219,935 L 219,939 L 218,940 L 217,939 L 216,940 L 212,940 L 212,958 L 211,959 L 207,959 L 206,958 L 206,940 L 200,940 L 199,939 L 199,935 Z M 19,869 L 19,872 L 21,874 L 111,874 L 113,872 L 113,868 L 112,868 L 111,867 L 21,867 Z M 993,860 L 993,861 L 992,862 L 992,864 L 991,865 L 991,867 L 989,870 L 989,872 L 988,873 L 988,875 L 987,876 L 987,877 L 986,878 L 986,880 L 984,883 L 984,885 L 983,886 L 983,888 L 982,889 L 982,891 L 989,891 L 989,889 L 990,888 L 990,887 L 992,885 L 1002,885 L 1004,887 L 1004,889 L 1005,890 L 1005,891 L 1012,891 L 1012,889 L 1011,888 L 1011,886 L 1009,883 L 1009,881 L 1007,878 L 1007,876 L 1005,873 L 1005,871 L 1004,870 L 1004,868 L 1002,865 L 1002,863 L 1001,862 L 1001,861 L 1000,860 Z M 997,869 L 998,870 L 998,872 L 999,873 L 999,875 L 1000,876 L 1000,878 L 999,879 L 994,879 L 993,878 L 994,877 L 994,875 L 995,874 L 995,872 Z M 953,860 L 952,861 L 952,890 L 953,891 L 969,891 L 970,890 L 972,890 L 974,888 L 975,888 L 978,885 L 978,884 L 979,883 L 979,881 L 980,880 L 980,871 L 979,870 L 979,868 L 973,862 L 972,862 L 971,861 L 969,861 L 968,860 Z M 961,866 L 965,866 L 966,867 L 968,867 L 969,868 L 970,868 L 972,870 L 972,872 L 973,873 L 973,879 L 972,880 L 972,881 L 969,884 L 968,884 L 967,885 L 960,885 L 959,884 L 959,868 Z M 930,860 L 930,861 L 928,864 L 928,866 L 926,869 L 926,871 L 925,872 L 925,874 L 923,877 L 923,879 L 922,880 L 922,882 L 921,883 L 921,885 L 920,886 L 920,887 L 919,888 L 919,890 L 918,891 L 925,891 L 926,890 L 926,888 L 928,885 L 939,885 L 940,886 L 940,887 L 941,888 L 941,890 L 942,891 L 949,891 L 949,890 L 947,887 L 947,885 L 946,884 L 946,882 L 944,879 L 944,877 L 943,876 L 943,874 L 942,873 L 942,872 L 941,871 L 941,869 L 939,866 L 939,864 L 938,863 L 938,861 L 937,860 Z M 933,870 L 934,870 L 935,871 L 935,873 L 936,874 L 936,876 L 937,877 L 937,878 L 936,879 L 931,879 L 930,878 L 930,877 L 931,876 L 931,874 L 932,873 L 932,871 Z M 895,860 L 895,866 L 902,866 L 904,868 L 904,891 L 911,891 L 911,867 L 912,866 L 920,866 L 920,860 Z M 876,860 L 876,861 L 874,864 L 874,866 L 872,869 L 872,871 L 870,874 L 870,876 L 869,877 L 869,879 L 868,880 L 868,882 L 866,885 L 866,887 L 865,888 L 864,891 L 871,891 L 872,890 L 872,888 L 874,885 L 885,885 L 886,886 L 886,887 L 887,888 L 887,890 L 888,891 L 895,891 L 895,890 L 894,889 L 894,887 L 892,884 L 892,882 L 891,881 L 891,879 L 889,876 L 889,874 L 888,873 L 888,871 L 886,868 L 886,866 L 885,865 L 885,863 L 884,862 L 884,861 L 883,860 Z M 880,869 L 881,870 L 881,872 L 882,873 L 882,876 L 883,877 L 883,878 L 882,879 L 877,879 L 876,878 L 876,877 L 877,876 L 877,875 L 878,874 L 878,872 Z M 836,860 L 836,891 L 842,891 L 843,890 L 843,881 L 844,880 L 846,880 L 848,882 L 848,883 L 850,885 L 850,886 L 851,887 L 851,888 L 853,890 L 853,891 L 861,891 L 861,890 L 859,888 L 858,885 L 854,880 L 856,878 L 857,878 L 859,876 L 859,875 L 860,874 L 860,866 L 855,861 L 852,861 L 851,860 Z M 842,868 L 844,866 L 850,866 L 853,869 L 853,872 L 850,875 L 844,875 L 842,873 L 842,870 L 843,869 Z M 806,860 L 806,866 L 811,866 L 812,867 L 814,867 L 815,868 L 815,891 L 822,891 L 822,868 L 824,866 L 825,867 L 826,866 L 829,866 L 830,867 L 831,866 L 831,860 Z M 765,860 L 765,861 L 766,862 L 767,865 L 769,867 L 769,868 L 770,869 L 770,870 L 772,872 L 772,873 L 773,874 L 774,877 L 776,879 L 776,891 L 782,891 L 783,890 L 783,878 L 784,877 L 785,874 L 787,872 L 788,869 L 790,867 L 791,864 L 793,862 L 793,860 L 786,860 L 786,861 L 784,863 L 784,864 L 783,865 L 782,868 L 779,871 L 777,869 L 776,866 L 774,864 L 774,863 L 772,860 Z M 730,860 L 729,861 L 729,891 L 751,891 L 751,886 L 750,885 L 737,885 L 736,884 L 736,879 L 737,878 L 738,878 L 739,879 L 740,878 L 748,878 L 749,877 L 749,874 L 748,873 L 737,873 L 736,872 L 736,867 L 737,866 L 750,866 L 751,865 L 751,861 L 750,860 Z M 705,860 L 704,861 L 704,891 L 725,891 L 725,886 L 724,885 L 712,885 L 711,884 L 711,860 Z M 675,860 L 674,861 L 674,891 L 693,891 L 694,890 L 695,890 L 699,886 L 699,879 L 695,875 L 697,873 L 697,872 L 698,871 L 698,866 L 697,865 L 697,864 L 695,862 L 694,862 L 691,860 Z M 681,879 L 682,878 L 690,878 L 692,880 L 692,883 L 690,885 L 684,885 L 683,886 L 681,884 Z M 681,867 L 682,866 L 689,866 L 691,868 L 691,871 L 689,873 L 682,873 L 681,872 Z M 652,860 L 650,863 L 650,865 L 649,866 L 649,867 L 648,868 L 648,870 L 646,873 L 646,875 L 645,876 L 645,878 L 644,879 L 644,881 L 642,884 L 642,886 L 640,889 L 640,891 L 647,891 L 647,890 L 648,889 L 648,887 L 650,885 L 660,885 L 662,887 L 662,889 L 663,890 L 663,891 L 670,891 L 670,889 L 669,888 L 669,886 L 668,885 L 668,883 L 666,880 L 666,878 L 665,877 L 665,875 L 664,874 L 664,872 L 662,869 L 662,867 L 660,864 L 660,862 L 659,861 L 659,860 Z M 655,869 L 656,870 L 656,872 L 657,873 L 657,874 L 658,875 L 658,877 L 659,878 L 658,879 L 653,879 L 652,878 L 652,876 L 653,875 L 653,873 L 654,872 L 654,870 Z M 617,860 L 616,861 L 616,866 L 624,866 L 625,867 L 625,891 L 632,891 L 632,868 L 634,866 L 635,867 L 640,867 L 641,866 L 641,860 Z M 595,860 L 594,861 L 592,861 L 586,867 L 586,868 L 585,869 L 585,871 L 584,872 L 584,880 L 585,881 L 585,883 L 587,885 L 587,886 L 590,889 L 591,889 L 594,891 L 596,891 L 597,892 L 602,892 L 603,891 L 605,891 L 606,890 L 609,889 L 612,886 L 612,885 L 614,883 L 614,881 L 615,880 L 615,871 L 614,870 L 613,867 L 607,861 L 606,861 L 605,860 Z M 597,866 L 602,866 L 603,867 L 604,867 L 606,869 L 606,870 L 608,873 L 608,878 L 607,879 L 607,881 L 603,885 L 596,885 L 592,881 L 592,879 L 591,878 L 591,873 L 592,872 L 593,869 L 594,868 L 595,868 Z M 576,861 L 574,861 L 573,860 L 557,860 L 557,891 L 564,891 L 564,882 L 565,881 L 573,881 L 574,880 L 577,879 L 580,876 L 580,875 L 581,874 L 581,867 L 580,866 L 580,865 Z M 564,867 L 565,866 L 571,866 L 574,869 L 574,873 L 572,875 L 565,875 L 564,874 Z M 523,860 L 522,861 L 522,863 L 521,864 L 521,866 L 520,867 L 520,869 L 518,872 L 518,874 L 516,877 L 516,879 L 515,880 L 515,882 L 513,885 L 513,887 L 512,888 L 511,891 L 518,891 L 519,890 L 519,888 L 521,885 L 532,885 L 533,886 L 533,887 L 534,888 L 534,890 L 535,891 L 542,891 L 542,890 L 540,887 L 540,885 L 539,884 L 539,882 L 537,879 L 537,877 L 536,876 L 536,874 L 535,873 L 535,871 L 533,868 L 533,866 L 532,865 L 532,863 L 531,862 L 531,861 L 530,860 Z M 527,869 L 528,870 L 528,873 L 529,874 L 529,876 L 530,877 L 530,878 L 529,879 L 524,879 L 523,878 L 523,877 L 524,876 L 524,874 L 525,873 L 525,871 Z M 483,860 L 483,884 L 484,885 L 484,886 L 488,890 L 489,890 L 490,891 L 492,891 L 493,892 L 499,892 L 500,891 L 502,891 L 503,890 L 504,890 L 507,887 L 507,886 L 509,883 L 509,861 L 508,860 L 503,860 L 502,861 L 502,881 L 501,882 L 501,883 L 499,885 L 497,885 L 496,886 L 495,886 L 494,885 L 493,885 L 490,882 L 490,861 L 489,860 Z M 460,860 L 459,861 L 457,861 L 452,865 L 452,866 L 449,871 L 449,880 L 450,881 L 450,883 L 451,884 L 451,885 L 456,890 L 457,890 L 458,891 L 461,891 L 462,892 L 467,892 L 468,891 L 470,891 L 471,890 L 473,890 L 478,886 L 478,875 L 477,874 L 465,874 L 464,875 L 464,879 L 465,880 L 470,880 L 471,881 L 471,883 L 469,885 L 467,885 L 466,886 L 464,886 L 463,885 L 461,885 L 457,881 L 457,879 L 456,878 L 456,873 L 457,872 L 458,869 L 460,867 L 461,867 L 462,866 L 466,866 L 467,867 L 468,867 L 471,870 L 472,870 L 477,866 L 473,862 L 472,862 L 469,860 Z M 430,860 L 427,865 L 427,867 L 426,868 L 426,870 L 425,871 L 425,873 L 424,874 L 424,875 L 423,876 L 423,878 L 421,881 L 421,883 L 420,884 L 420,886 L 418,889 L 418,891 L 425,891 L 425,890 L 426,889 L 426,887 L 428,885 L 438,885 L 440,887 L 440,889 L 441,890 L 441,891 L 448,891 L 448,889 L 446,886 L 446,884 L 445,883 L 445,881 L 444,880 L 444,878 L 443,877 L 443,876 L 442,875 L 442,873 L 440,870 L 440,868 L 439,867 L 439,865 L 438,864 L 438,862 L 436,860 Z M 433,869 L 435,872 L 435,874 L 436,875 L 436,877 L 437,878 L 436,879 L 430,879 L 429,878 L 431,875 L 431,873 L 432,872 L 432,870 Z M 383,860 L 382,861 L 382,891 L 404,891 L 404,886 L 403,885 L 390,885 L 389,884 L 389,879 L 390,878 L 398,878 L 399,879 L 401,879 L 402,878 L 402,873 L 390,873 L 389,872 L 389,867 L 390,866 L 403,866 L 403,860 Z M 350,860 L 350,891 L 366,891 L 367,890 L 369,890 L 370,889 L 371,889 L 375,885 L 375,884 L 377,881 L 377,878 L 378,877 L 378,875 L 377,874 L 377,870 L 376,869 L 375,866 L 372,863 L 371,863 L 368,861 L 365,861 L 364,860 Z M 358,866 L 362,866 L 363,867 L 365,867 L 366,868 L 367,868 L 369,870 L 369,871 L 370,872 L 370,880 L 366,884 L 365,884 L 364,885 L 358,885 L 357,884 L 357,867 Z M 312,860 L 311,861 L 308,862 L 304,866 L 304,867 L 302,870 L 302,873 L 301,874 L 301,878 L 302,879 L 302,881 L 303,882 L 303,884 L 309,890 L 310,890 L 311,891 L 314,891 L 315,892 L 319,892 L 320,891 L 323,891 L 324,890 L 325,890 L 327,888 L 328,888 L 332,882 L 332,879 L 333,878 L 333,873 L 332,872 L 332,870 L 331,869 L 330,866 L 326,862 L 325,862 L 322,860 Z M 315,866 L 319,866 L 320,867 L 321,867 L 324,870 L 324,871 L 325,872 L 325,874 L 326,875 L 326,877 L 325,878 L 325,880 L 324,881 L 324,882 L 322,884 L 321,884 L 320,885 L 318,885 L 317,886 L 316,885 L 314,885 L 313,884 L 312,884 L 310,882 L 310,881 L 309,880 L 309,872 L 310,871 L 310,870 L 313,867 L 314,867 Z M 290,860 L 290,891 L 297,891 L 297,861 L 296,860 Z M 268,860 L 267,861 L 264,862 L 260,866 L 260,867 L 258,870 L 258,873 L 257,874 L 257,878 L 258,879 L 258,882 L 259,883 L 260,886 L 262,888 L 263,888 L 265,890 L 266,890 L 267,891 L 269,891 L 270,892 L 275,892 L 276,891 L 278,891 L 279,890 L 282,889 L 285,886 L 285,884 L 283,882 L 282,882 L 281,881 L 279,881 L 279,882 L 276,885 L 274,885 L 273,886 L 272,885 L 270,885 L 269,884 L 268,884 L 266,882 L 266,881 L 265,880 L 265,872 L 266,871 L 266,870 L 269,867 L 270,867 L 271,866 L 275,866 L 276,867 L 277,867 L 279,869 L 279,870 L 281,870 L 283,868 L 284,868 L 285,867 L 285,866 L 280,861 L 279,861 L 278,860 Z M 246,860 L 246,891 L 253,891 L 253,861 L 252,860 Z M 213,860 L 213,862 L 214,863 L 214,865 L 216,868 L 216,870 L 217,871 L 217,873 L 218,874 L 218,876 L 219,877 L 219,879 L 221,882 L 221,884 L 222,885 L 222,887 L 223,888 L 223,890 L 224,891 L 231,891 L 232,890 L 232,888 L 233,887 L 233,885 L 235,882 L 235,880 L 236,879 L 236,877 L 237,876 L 237,874 L 238,873 L 238,871 L 240,868 L 240,866 L 241,865 L 241,863 L 242,862 L 242,860 L 236,860 L 235,861 L 235,862 L 234,863 L 234,865 L 233,866 L 233,868 L 232,869 L 232,871 L 231,872 L 231,874 L 230,875 L 230,877 L 229,878 L 229,880 L 228,881 L 226,879 L 226,877 L 225,876 L 225,874 L 224,873 L 224,871 L 223,870 L 223,868 L 222,867 L 222,865 L 221,864 L 221,862 L 220,861 L 220,860 Z M 187,860 L 186,861 L 186,891 L 193,891 L 193,882 L 195,880 L 197,880 L 199,882 L 200,885 L 202,887 L 202,888 L 204,891 L 212,891 L 211,890 L 211,889 L 209,887 L 208,884 L 206,882 L 206,881 L 205,880 L 207,878 L 208,878 L 209,877 L 209,876 L 211,873 L 211,867 L 210,866 L 210,865 L 207,862 L 206,862 L 203,860 Z M 193,868 L 195,866 L 201,866 L 204,869 L 204,872 L 202,874 L 201,874 L 200,875 L 195,875 L 193,873 Z M 160,860 L 159,861 L 159,890 L 160,891 L 181,891 L 181,885 L 167,885 L 166,884 L 166,880 L 167,879 L 178,879 L 179,878 L 179,873 L 167,873 L 166,872 L 166,867 L 167,866 L 181,866 L 181,860 Z M 137,860 L 136,861 L 135,861 L 132,864 L 132,865 L 131,866 L 131,873 L 135,877 L 137,877 L 138,878 L 141,878 L 142,879 L 144,879 L 145,880 L 146,880 L 147,881 L 147,884 L 144,886 L 140,886 L 139,885 L 136,884 L 134,882 L 133,882 L 132,883 L 132,884 L 130,886 L 130,887 L 132,889 L 133,889 L 136,891 L 139,891 L 140,892 L 145,892 L 146,891 L 148,891 L 149,890 L 150,890 L 154,886 L 154,885 L 155,884 L 155,880 L 154,879 L 154,878 L 150,874 L 149,874 L 148,873 L 145,873 L 144,872 L 141,872 L 138,870 L 138,868 L 140,866 L 146,866 L 148,868 L 149,868 L 150,869 L 151,868 L 151,867 L 154,864 L 152,862 L 151,862 L 148,860 Z M 130,839 L 130,841 L 131,842 L 131,843 L 1009,843 L 1010,844 L 1011,843 L 1013,843 L 1014,842 L 1014,839 L 1012,837 L 132,837 Z M 1037,822 L 1036,823 L 1036,825 L 1035,826 L 1035,828 L 1034,829 L 1034,832 L 1033,833 L 1033,836 L 1032,837 L 1032,843 L 1031,844 L 1031,859 L 1032,860 L 1032,864 L 1033,865 L 1033,868 L 1034,869 L 1034,871 L 1035,872 L 1035,874 L 1036,875 L 1036,876 L 1037,877 L 1038,880 L 1040,882 L 1040,883 L 1050,893 L 1051,893 L 1053,895 L 1054,895 L 1055,896 L 1056,896 L 1057,897 L 1060,898 L 1060,880 L 1059,879 L 1059,874 L 1058,873 L 1058,870 L 1057,869 L 1057,866 L 1056,865 L 1056,863 L 1054,860 L 1054,858 L 1053,857 L 1053,856 L 1052,855 L 1051,852 L 1052,851 L 1054,853 L 1055,856 L 1057,858 L 1057,859 L 1058,860 L 1058,861 L 1059,862 L 1059,863 L 1062,868 L 1062,861 L 1063,860 L 1063,857 L 1064,856 L 1064,854 L 1065,853 L 1065,851 L 1067,848 L 1067,845 L 1066,844 L 1066,843 L 1064,841 L 1064,840 L 1055,831 L 1054,831 L 1051,828 L 1050,828 L 1048,826 L 1047,826 L 1046,825 L 1045,825 L 1040,822 Z M 1146,804 L 1135,804 L 1134,805 L 1130,805 L 1129,806 L 1125,806 L 1124,807 L 1122,807 L 1121,808 L 1118,808 L 1115,810 L 1113,810 L 1112,811 L 1110,811 L 1109,812 L 1108,812 L 1107,813 L 1106,813 L 1105,814 L 1102,815 L 1100,817 L 1099,817 L 1097,819 L 1096,819 L 1094,821 L 1093,821 L 1080,834 L 1080,835 L 1078,837 L 1077,840 L 1075,842 L 1075,843 L 1073,846 L 1073,848 L 1071,851 L 1071,853 L 1070,854 L 1070,856 L 1069,857 L 1069,860 L 1068,861 L 1068,864 L 1067,865 L 1067,880 L 1068,877 L 1070,875 L 1070,874 L 1071,873 L 1071,872 L 1073,870 L 1074,867 L 1077,864 L 1077,863 L 1079,861 L 1079,860 L 1083,856 L 1083,855 L 1092,846 L 1093,846 L 1098,841 L 1099,841 L 1102,838 L 1103,838 L 1105,836 L 1106,836 L 1108,834 L 1109,834 L 1112,832 L 1113,832 L 1114,833 L 1110,837 L 1109,837 L 1094,852 L 1094,853 L 1090,857 L 1090,858 L 1084,865 L 1084,866 L 1082,868 L 1081,871 L 1079,873 L 1078,876 L 1076,878 L 1076,879 L 1074,882 L 1074,884 L 1073,885 L 1073,886 L 1072,887 L 1072,889 L 1070,892 L 1070,894 L 1069,895 L 1069,897 L 1068,898 L 1068,900 L 1077,900 L 1078,899 L 1083,899 L 1084,898 L 1087,898 L 1088,897 L 1090,897 L 1091,896 L 1093,896 L 1094,895 L 1095,895 L 1096,894 L 1097,894 L 1098,893 L 1099,893 L 1100,892 L 1103,891 L 1105,889 L 1106,889 L 1109,886 L 1110,886 L 1120,876 L 1120,875 L 1123,872 L 1123,871 L 1127,866 L 1128,863 L 1130,861 L 1130,860 L 1132,857 L 1132,855 L 1135,850 L 1135,848 L 1137,845 L 1137,843 L 1138,842 L 1138,840 L 1139,839 L 1139,836 L 1140,835 L 1140,832 L 1141,831 L 1141,829 L 1142,828 L 1142,824 L 1143,823 L 1143,819 L 1144,818 L 1144,813 L 1145,812 L 1145,805 Z M 1113,832 L 1114,831 L 1115,832 L 1114,833 Z M 1114,831 L 1115,830 L 1116,830 L 1117,831 L 1116,832 L 1115,832 Z M 1115,710 L 1113,712 L 1112,712 L 1109,715 L 1108,715 L 1105,718 L 1104,718 L 1102,720 L 1101,720 L 1099,722 L 1098,722 L 1093,726 L 1092,726 L 1091,727 L 1090,727 L 1088,729 L 1085,730 L 1083,732 L 1082,732 L 1081,733 L 1080,733 L 1079,734 L 1078,734 L 1077,735 L 1076,735 L 1075,736 L 1074,736 L 1073,737 L 1070,738 L 1068,740 L 1066,740 L 1065,741 L 1064,741 L 1063,742 L 1062,742 L 1057,745 L 1055,745 L 1050,748 L 1048,748 L 1047,749 L 1045,749 L 1042,751 L 1040,751 L 1039,752 L 1037,752 L 1036,753 L 1034,753 L 1033,754 L 1030,754 L 1029,755 L 1027,755 L 1026,756 L 1023,756 L 1022,757 L 1020,757 L 1019,758 L 1016,758 L 1015,759 L 1012,759 L 1011,760 L 1007,760 L 1006,761 L 1002,761 L 1001,762 L 997,762 L 996,763 L 991,763 L 990,764 L 985,764 L 984,765 L 977,765 L 976,766 L 969,766 L 968,767 L 959,767 L 958,768 L 945,768 L 944,769 L 899,769 L 898,768 L 885,768 L 884,767 L 875,767 L 874,766 L 866,766 L 865,765 L 859,765 L 858,764 L 852,764 L 851,763 L 845,763 L 844,762 L 839,762 L 838,761 L 833,761 L 832,760 L 827,760 L 826,759 L 822,759 L 821,758 L 817,758 L 816,757 L 812,757 L 811,756 L 807,756 L 806,755 L 801,755 L 800,754 L 796,754 L 795,753 L 791,753 L 790,752 L 786,752 L 785,751 L 781,751 L 780,750 L 775,750 L 774,749 L 770,749 L 769,748 L 765,748 L 764,747 L 759,747 L 758,746 L 753,746 L 752,745 L 746,745 L 745,744 L 739,744 L 738,743 L 730,743 L 729,742 L 720,742 L 719,743 L 718,746 L 715,749 L 715,750 L 713,752 L 713,753 L 709,758 L 709,759 L 706,762 L 706,763 L 703,766 L 703,767 L 699,771 L 699,772 L 702,772 L 703,773 L 708,773 L 709,774 L 713,774 L 714,775 L 718,775 L 719,776 L 723,776 L 724,777 L 727,777 L 728,778 L 731,778 L 732,779 L 735,779 L 736,780 L 739,780 L 740,781 L 743,781 L 744,782 L 747,782 L 748,783 L 751,783 L 752,784 L 755,784 L 756,785 L 758,785 L 759,786 L 762,786 L 763,787 L 766,787 L 767,788 L 770,788 L 771,789 L 773,789 L 774,790 L 777,790 L 778,791 L 781,791 L 782,792 L 785,792 L 786,793 L 789,793 L 790,794 L 792,794 L 793,795 L 796,795 L 797,796 L 800,796 L 801,797 L 804,797 L 805,798 L 809,798 L 810,799 L 813,799 L 814,800 L 818,800 L 819,801 L 823,801 L 824,802 L 828,802 L 829,803 L 833,803 L 834,804 L 838,804 L 839,805 L 845,805 L 846,806 L 851,806 L 852,807 L 859,807 L 860,808 L 867,808 L 868,809 L 878,809 L 879,810 L 894,810 L 895,811 L 923,811 L 924,810 L 935,810 L 936,809 L 945,809 L 946,808 L 951,808 L 952,807 L 958,807 L 959,806 L 963,806 L 964,805 L 969,805 L 970,804 L 973,804 L 974,803 L 977,803 L 978,802 L 981,802 L 982,801 L 985,801 L 986,800 L 988,800 L 989,799 L 992,799 L 993,798 L 995,798 L 996,797 L 998,797 L 999,796 L 1001,796 L 1002,795 L 1004,795 L 1005,794 L 1007,794 L 1010,792 L 1012,792 L 1013,791 L 1015,791 L 1018,789 L 1020,789 L 1021,788 L 1022,788 L 1027,785 L 1029,785 L 1030,784 L 1031,784 L 1032,783 L 1033,783 L 1034,782 L 1035,782 L 1036,781 L 1037,781 L 1038,780 L 1039,780 L 1040,779 L 1043,778 L 1045,776 L 1046,776 L 1047,775 L 1050,774 L 1052,772 L 1055,771 L 1057,769 L 1058,769 L 1060,767 L 1061,767 L 1063,765 L 1064,765 L 1066,763 L 1067,763 L 1070,760 L 1071,760 L 1074,757 L 1075,757 L 1079,753 L 1080,753 L 1098,735 L 1098,734 L 1103,729 L 1103,728 L 1106,725 L 1106,724 L 1108,722 L 1108,721 L 1112,716 L 1112,715 L 1113,714 L 1113,713 L 1115,711 Z M 786,599 L 785,597 L 781,593 L 779,593 L 776,591 L 771,591 L 770,590 L 751,590 L 750,591 L 744,591 L 743,592 L 740,592 L 739,593 L 733,594 L 727,597 L 723,602 L 723,604 L 724,605 L 723,610 L 713,630 L 711,632 L 709,637 L 707,639 L 703,647 L 701,649 L 701,650 L 699,652 L 699,653 L 697,655 L 693,662 L 689,666 L 689,667 L 677,680 L 676,680 L 670,686 L 669,686 L 663,691 L 655,695 L 652,695 L 651,696 L 644,696 L 642,695 L 640,692 L 641,686 L 643,684 L 646,678 L 650,673 L 651,670 L 659,659 L 660,656 L 664,651 L 665,648 L 667,646 L 668,643 L 673,636 L 675,631 L 677,629 L 686,611 L 686,609 L 687,608 L 687,602 L 686,601 L 686,599 L 683,596 L 679,594 L 677,594 L 676,593 L 672,593 L 671,592 L 650,592 L 649,593 L 639,594 L 638,595 L 630,597 L 625,600 L 624,602 L 624,607 L 623,608 L 623,611 L 621,615 L 619,617 L 614,627 L 612,629 L 609,635 L 606,638 L 602,645 L 598,649 L 598,650 L 595,653 L 595,654 L 575,674 L 574,674 L 569,679 L 568,679 L 562,684 L 556,687 L 551,691 L 533,700 L 531,700 L 528,702 L 523,703 L 520,705 L 517,705 L 513,707 L 505,708 L 504,709 L 499,709 L 498,710 L 479,710 L 478,709 L 474,709 L 473,708 L 469,707 L 461,700 L 459,696 L 459,686 L 461,684 L 467,684 L 468,685 L 479,685 L 480,684 L 492,684 L 493,683 L 499,683 L 500,682 L 505,682 L 506,681 L 509,681 L 510,680 L 513,680 L 514,679 L 521,678 L 522,677 L 530,675 L 533,673 L 535,673 L 551,665 L 557,660 L 558,660 L 563,655 L 564,655 L 573,644 L 576,638 L 577,632 L 578,631 L 578,618 L 577,617 L 577,615 L 574,609 L 568,602 L 567,602 L 562,598 L 558,597 L 555,595 L 549,594 L 548,593 L 543,593 L 542,592 L 517,592 L 516,593 L 505,594 L 504,595 L 500,595 L 496,597 L 489,598 L 488,599 L 483,600 L 480,602 L 475,603 L 453,614 L 451,616 L 450,616 L 448,618 L 441,622 L 433,629 L 432,629 L 422,639 L 421,639 L 421,640 L 414,647 L 414,648 L 410,652 L 408,656 L 405,659 L 396,677 L 396,680 L 395,681 L 395,684 L 394,685 L 394,689 L 393,690 L 393,702 L 394,703 L 394,707 L 395,708 L 396,713 L 401,722 L 411,732 L 424,739 L 426,739 L 430,741 L 433,741 L 434,742 L 438,742 L 439,743 L 445,743 L 446,744 L 473,744 L 474,743 L 482,743 L 483,742 L 494,741 L 495,740 L 499,740 L 500,739 L 504,739 L 505,738 L 508,738 L 512,736 L 515,736 L 516,735 L 518,735 L 519,734 L 521,734 L 522,733 L 524,733 L 525,732 L 533,730 L 536,728 L 538,728 L 543,725 L 545,725 L 557,719 L 559,717 L 564,715 L 566,713 L 573,709 L 581,702 L 582,703 L 582,706 L 583,707 L 583,711 L 584,712 L 584,714 L 592,723 L 598,726 L 600,726 L 604,728 L 609,728 L 610,729 L 624,729 L 625,728 L 631,728 L 632,727 L 639,726 L 640,725 L 648,723 L 667,713 L 668,714 L 666,716 L 664,721 L 660,726 L 659,729 L 655,734 L 636,734 L 635,735 L 624,735 L 623,736 L 615,736 L 614,737 L 608,737 L 607,738 L 603,738 L 602,739 L 593,740 L 592,741 L 589,741 L 588,742 L 585,742 L 584,743 L 582,743 L 578,745 L 572,746 L 569,748 L 567,748 L 564,750 L 562,750 L 550,756 L 548,758 L 542,761 L 533,769 L 532,769 L 532,770 L 525,778 L 522,784 L 521,789 L 520,790 L 520,801 L 526,813 L 536,821 L 540,823 L 542,823 L 545,825 L 547,825 L 548,826 L 551,826 L 552,827 L 557,827 L 558,828 L 586,828 L 587,827 L 593,827 L 594,826 L 598,826 L 599,825 L 606,824 L 607,823 L 613,822 L 619,819 L 624,818 L 629,815 L 631,815 L 641,810 L 648,805 L 651,804 L 653,802 L 657,800 L 660,797 L 661,797 L 664,794 L 665,794 L 670,789 L 671,789 L 688,772 L 688,771 L 693,766 L 693,765 L 700,757 L 704,750 L 707,747 L 707,746 L 717,732 L 718,729 L 722,724 L 723,721 L 725,719 L 726,716 L 728,714 L 729,711 L 731,709 L 732,706 L 737,699 L 739,694 L 741,692 L 747,680 L 752,673 L 756,664 L 758,662 L 763,651 L 765,649 L 785,609 L 785,607 L 786,606 Z M 641,756 L 638,759 L 638,760 L 634,764 L 634,765 L 627,772 L 627,773 L 621,779 L 620,779 L 614,785 L 613,785 L 610,788 L 609,788 L 604,792 L 603,792 L 598,795 L 596,795 L 593,797 L 591,797 L 590,798 L 587,798 L 586,799 L 582,799 L 581,800 L 576,800 L 575,799 L 572,799 L 571,798 L 570,798 L 566,794 L 566,786 L 567,785 L 568,782 L 571,779 L 571,778 L 576,773 L 577,773 L 580,770 L 581,770 L 583,768 L 584,768 L 585,767 L 586,767 L 587,766 L 588,766 L 593,763 L 595,763 L 598,761 L 600,761 L 601,760 L 603,760 L 604,759 L 607,759 L 608,758 L 612,758 L 613,757 L 618,757 L 619,756 L 626,756 L 627,755 L 640,755 Z M 529,625 L 529,626 L 530,627 L 530,631 L 529,632 L 529,634 L 528,635 L 528,636 L 526,638 L 526,639 L 516,649 L 515,649 L 512,652 L 511,652 L 509,654 L 508,654 L 507,655 L 506,655 L 505,656 L 504,656 L 503,657 L 502,657 L 497,660 L 495,660 L 494,661 L 492,661 L 491,662 L 489,662 L 488,663 L 484,663 L 483,664 L 479,664 L 478,665 L 472,665 L 471,666 L 469,666 L 468,665 L 469,662 L 472,659 L 472,658 L 474,656 L 474,655 L 480,649 L 480,648 L 489,639 L 490,639 L 495,634 L 496,634 L 499,631 L 500,631 L 502,629 L 503,629 L 504,628 L 505,628 L 506,627 L 507,627 L 512,624 L 514,624 L 515,623 L 519,623 L 520,622 L 525,622 L 526,623 L 527,623 Z M 1086,673 L 1085,672 L 1085,668 L 1084,667 L 1084,665 L 1082,662 L 1082,660 L 1081,659 L 1080,656 L 1075,650 L 1075,649 L 1071,645 L 1071,644 L 1062,635 L 1062,634 L 1058,630 L 1058,629 L 1056,627 L 1056,626 L 1054,624 L 1054,623 L 1052,620 L 1052,618 L 1051,617 L 1051,615 L 1050,614 L 1050,606 L 1051,605 L 1051,603 L 1052,602 L 1052,600 L 1053,599 L 1053,598 L 1054,597 L 1054,595 L 1055,594 L 1055,590 L 1054,589 L 1054,587 L 1053,586 L 1053,585 L 1050,582 L 1049,582 L 1044,579 L 1042,579 L 1041,578 L 1037,578 L 1036,577 L 1021,577 L 1020,578 L 1016,578 L 1015,579 L 1013,579 L 1010,581 L 1008,581 L 1006,583 L 1005,583 L 1003,585 L 1002,585 L 999,588 L 999,589 L 997,591 L 997,592 L 994,597 L 994,599 L 992,601 L 991,604 L 987,609 L 986,612 L 984,614 L 984,615 L 982,617 L 982,618 L 980,620 L 980,621 L 978,623 L 978,624 L 975,627 L 975,628 L 973,630 L 973,631 L 963,643 L 963,644 L 957,650 L 957,651 L 949,659 L 949,660 L 946,663 L 945,663 L 935,673 L 934,673 L 929,678 L 928,678 L 925,681 L 924,681 L 922,683 L 921,683 L 916,687 L 913,688 L 911,690 L 910,690 L 909,691 L 908,691 L 907,692 L 906,692 L 905,693 L 904,693 L 903,694 L 902,694 L 901,695 L 900,695 L 893,699 L 891,699 L 888,701 L 886,701 L 885,702 L 883,702 L 882,703 L 880,703 L 879,704 L 876,704 L 875,705 L 872,705 L 871,706 L 867,706 L 866,707 L 860,707 L 859,708 L 846,708 L 845,707 L 841,707 L 840,706 L 838,706 L 837,705 L 835,705 L 833,703 L 832,703 L 828,699 L 828,698 L 826,696 L 826,694 L 825,693 L 825,684 L 827,682 L 850,682 L 851,681 L 858,681 L 859,680 L 864,680 L 865,679 L 869,679 L 870,678 L 874,678 L 875,677 L 878,677 L 879,676 L 882,676 L 883,675 L 885,675 L 886,674 L 888,674 L 889,673 L 891,673 L 894,671 L 896,671 L 899,669 L 901,669 L 902,668 L 903,668 L 904,667 L 905,667 L 906,666 L 911,664 L 916,660 L 919,659 L 923,655 L 924,655 L 933,646 L 933,645 L 936,642 L 936,641 L 938,639 L 938,638 L 939,637 L 939,635 L 940,634 L 940,633 L 941,632 L 941,630 L 942,629 L 942,625 L 943,624 L 943,616 L 942,615 L 942,611 L 941,610 L 941,609 L 940,608 L 938,603 L 931,596 L 930,596 L 928,594 L 927,594 L 922,591 L 920,591 L 919,590 L 917,590 L 916,589 L 913,589 L 912,588 L 905,588 L 904,587 L 890,587 L 889,588 L 882,588 L 881,589 L 875,589 L 874,590 L 871,590 L 870,591 L 866,591 L 865,592 L 862,592 L 861,593 L 859,593 L 858,594 L 856,594 L 855,595 L 853,595 L 850,597 L 848,597 L 847,598 L 845,598 L 840,601 L 838,601 L 837,602 L 836,602 L 835,603 L 834,603 L 833,604 L 832,604 L 831,605 L 826,607 L 824,609 L 821,610 L 819,612 L 818,612 L 816,614 L 815,614 L 813,616 L 812,616 L 810,618 L 809,618 L 799,627 L 798,627 L 788,637 L 788,638 L 783,643 L 783,644 L 780,647 L 780,648 L 777,651 L 777,652 L 773,657 L 773,658 L 772,659 L 772,660 L 771,661 L 771,662 L 770,663 L 770,664 L 769,665 L 769,666 L 765,673 L 765,675 L 764,676 L 764,678 L 763,679 L 763,683 L 762,684 L 762,690 L 761,691 L 761,698 L 762,699 L 762,704 L 763,705 L 763,707 L 764,708 L 764,710 L 765,711 L 767,716 L 769,718 L 769,719 L 773,723 L 773,724 L 783,732 L 784,732 L 789,735 L 791,735 L 794,737 L 796,737 L 797,738 L 799,738 L 800,739 L 804,739 L 805,740 L 809,740 L 810,741 L 820,741 L 821,742 L 833,742 L 834,741 L 846,741 L 847,740 L 853,740 L 854,739 L 858,739 L 859,738 L 863,738 L 864,737 L 867,737 L 868,736 L 871,736 L 872,735 L 875,735 L 876,734 L 878,734 L 879,733 L 882,733 L 885,731 L 887,731 L 888,730 L 890,730 L 891,729 L 893,729 L 896,727 L 898,727 L 903,724 L 905,724 L 906,723 L 907,723 L 908,722 L 909,722 L 910,721 L 911,721 L 912,720 L 917,718 L 919,716 L 924,714 L 926,712 L 927,712 L 929,710 L 930,710 L 932,708 L 933,708 L 936,705 L 937,705 L 939,703 L 940,703 L 944,699 L 945,699 L 950,694 L 951,694 L 980,665 L 980,664 L 994,649 L 994,648 L 999,643 L 999,642 L 1001,640 L 1002,640 L 1004,642 L 1004,643 L 1005,644 L 1005,645 L 1007,647 L 1009,652 L 1011,654 L 1013,659 L 1015,661 L 1015,662 L 1019,669 L 1019,671 L 1020,672 L 1020,674 L 1021,675 L 1021,678 L 1022,679 L 1022,692 L 1021,693 L 1021,696 L 1020,697 L 1018,702 L 1015,705 L 1015,706 L 1012,709 L 1011,709 L 1009,711 L 1008,711 L 1006,713 L 1005,713 L 1004,714 L 1002,714 L 1001,715 L 997,715 L 996,716 L 991,716 L 990,715 L 988,715 L 987,714 L 986,714 L 982,710 L 982,705 L 983,704 L 983,703 L 985,701 L 985,698 L 984,697 L 984,696 L 981,694 L 977,694 L 976,693 L 973,693 L 972,694 L 967,694 L 966,695 L 963,695 L 962,696 L 957,698 L 955,700 L 954,700 L 948,706 L 948,707 L 945,712 L 945,715 L 944,716 L 944,722 L 945,723 L 945,725 L 946,726 L 947,729 L 953,735 L 954,735 L 956,737 L 957,737 L 962,740 L 964,740 L 965,741 L 968,741 L 969,742 L 972,742 L 973,743 L 978,743 L 979,744 L 1002,744 L 1003,743 L 1009,743 L 1010,742 L 1014,742 L 1015,741 L 1019,741 L 1020,740 L 1023,740 L 1024,739 L 1026,739 L 1027,738 L 1029,738 L 1030,737 L 1032,737 L 1033,736 L 1035,736 L 1036,735 L 1038,735 L 1039,734 L 1040,734 L 1041,733 L 1042,733 L 1043,732 L 1044,732 L 1045,731 L 1046,731 L 1047,730 L 1052,728 L 1054,726 L 1057,725 L 1063,720 L 1064,720 L 1076,708 L 1076,707 L 1080,702 L 1080,701 L 1083,696 L 1083,694 L 1084,693 L 1084,691 L 1085,690 L 1085,686 L 1086,685 Z M 893,622 L 893,630 L 892,631 L 891,634 L 889,636 L 889,637 L 880,646 L 879,646 L 876,649 L 875,649 L 873,651 L 872,651 L 871,652 L 870,652 L 869,653 L 868,653 L 867,654 L 866,654 L 861,657 L 859,657 L 856,659 L 853,659 L 852,660 L 850,660 L 849,661 L 846,661 L 845,662 L 840,662 L 839,663 L 834,663 L 833,662 L 833,661 L 834,660 L 834,659 L 836,657 L 836,656 L 839,653 L 839,652 L 842,649 L 842,648 L 847,643 L 847,642 L 855,634 L 856,634 L 861,629 L 862,629 L 867,625 L 868,625 L 869,624 L 870,624 L 875,621 L 877,621 L 878,620 L 880,620 L 881,619 L 889,619 L 890,620 L 891,620 Z M 30,672 L 30,682 L 31,683 L 32,689 L 37,698 L 48,708 L 54,711 L 56,711 L 63,714 L 67,714 L 68,715 L 89,715 L 90,714 L 95,714 L 110,708 L 113,706 L 115,703 L 115,701 L 113,698 L 99,697 L 98,696 L 93,695 L 84,687 L 82,682 L 82,671 L 86,662 L 95,652 L 108,642 L 118,637 L 120,635 L 132,629 L 139,627 L 144,624 L 146,624 L 152,621 L 154,621 L 164,617 L 167,617 L 174,614 L 177,614 L 178,613 L 181,613 L 186,611 L 190,611 L 195,609 L 199,609 L 200,608 L 205,608 L 206,607 L 211,607 L 212,606 L 219,606 L 220,605 L 229,605 L 230,604 L 260,603 L 261,602 L 281,602 L 282,603 L 297,603 L 298,604 L 310,605 L 311,606 L 314,606 L 315,607 L 320,608 L 326,611 L 334,620 L 335,628 L 332,635 L 330,638 L 314,653 L 308,657 L 287,667 L 285,667 L 275,671 L 272,671 L 268,673 L 252,676 L 251,674 L 271,645 L 272,642 L 278,634 L 279,631 L 281,629 L 282,626 L 291,612 L 290,611 L 250,611 L 249,612 L 240,612 L 239,613 L 232,613 L 231,614 L 223,615 L 218,621 L 209,635 L 206,638 L 204,642 L 177,677 L 172,682 L 162,695 L 155,702 L 155,703 L 145,713 L 145,714 L 125,734 L 97,756 L 94,757 L 87,762 L 65,772 L 61,776 L 59,780 L 59,785 L 61,790 L 68,797 L 76,801 L 78,801 L 82,803 L 85,803 L 86,804 L 92,804 L 93,805 L 110,805 L 111,804 L 122,803 L 123,802 L 126,802 L 135,798 L 137,798 L 155,788 L 168,778 L 177,769 L 178,769 L 194,752 L 194,751 L 213,729 L 215,725 L 231,704 L 239,704 L 240,705 L 242,705 L 248,711 L 253,720 L 263,733 L 265,737 L 279,753 L 279,754 L 296,771 L 297,771 L 311,783 L 325,792 L 339,799 L 341,799 L 344,801 L 346,801 L 359,806 L 363,806 L 364,807 L 368,807 L 369,808 L 374,808 L 375,809 L 382,809 L 383,810 L 414,810 L 415,809 L 423,809 L 424,808 L 430,808 L 431,807 L 436,807 L 441,805 L 445,805 L 446,804 L 453,803 L 454,802 L 471,797 L 474,795 L 481,793 L 488,789 L 490,789 L 510,778 L 529,764 L 543,749 L 543,747 L 541,747 L 515,756 L 512,756 L 511,757 L 508,757 L 507,758 L 504,758 L 503,759 L 500,759 L 495,761 L 479,763 L 478,764 L 472,764 L 471,765 L 460,765 L 459,766 L 431,766 L 430,765 L 413,764 L 412,763 L 407,763 L 406,762 L 402,762 L 401,761 L 394,760 L 393,759 L 382,756 L 379,754 L 377,754 L 367,749 L 344,734 L 331,724 L 320,714 L 319,714 L 301,697 L 302,696 L 309,695 L 313,693 L 320,692 L 321,691 L 332,688 L 335,686 L 340,685 L 367,672 L 369,670 L 377,666 L 396,651 L 396,650 L 402,644 L 405,640 L 411,626 L 411,614 L 410,613 L 409,608 L 403,599 L 396,593 L 381,585 L 379,585 L 369,581 L 356,579 L 355,578 L 350,578 L 349,577 L 332,576 L 331,575 L 313,575 L 312,574 L 270,574 L 269,575 L 230,576 L 229,577 L 211,578 L 210,579 L 204,579 L 203,580 L 186,582 L 185,583 L 172,585 L 171,586 L 156,589 L 152,591 L 149,591 L 145,593 L 142,593 L 141,594 L 124,599 L 121,601 L 116,602 L 113,604 L 106,606 L 99,610 L 97,610 L 95,612 L 93,612 L 85,616 L 83,618 L 76,621 L 59,632 L 55,636 L 54,636 L 37,654 L 32,664 L 31,671 Z M 103,507 L 84,507 L 83,508 L 65,508 L 64,509 L 49,509 L 48,510 L 40,510 L 39,511 L 39,513 L 38,514 L 38,516 L 37,517 L 37,519 L 36,520 L 36,522 L 35,523 L 35,525 L 44,525 L 45,524 L 52,524 L 53,525 L 53,527 L 52,528 L 52,530 L 50,533 L 50,535 L 49,536 L 49,538 L 48,539 L 48,541 L 47,542 L 47,544 L 46,545 L 46,547 L 45,548 L 45,550 L 44,551 L 44,553 L 43,554 L 43,556 L 42,557 L 42,559 L 41,560 L 41,562 L 40,563 L 40,565 L 39,566 L 39,568 L 38,569 L 38,570 L 59,570 L 60,569 L 62,569 L 64,566 L 64,564 L 65,563 L 65,561 L 67,558 L 67,556 L 68,555 L 68,553 L 69,552 L 69,550 L 70,549 L 70,547 L 71,546 L 71,544 L 72,543 L 72,541 L 73,540 L 73,538 L 75,535 L 75,533 L 76,532 L 76,530 L 77,529 L 77,527 L 78,526 L 78,525 L 80,523 L 97,523 L 99,521 L 99,518 L 101,515 L 101,513 L 102,512 L 102,509 L 103,508 Z M 234,502 L 214,502 L 213,503 L 203,503 L 200,506 L 200,507 L 198,509 L 198,510 L 195,513 L 195,514 L 193,516 L 193,517 L 191,519 L 191,520 L 189,522 L 189,523 L 186,526 L 186,527 L 184,529 L 184,530 L 182,532 L 182,533 L 180,535 L 180,536 L 177,539 L 176,542 L 174,544 L 174,545 L 171,548 L 171,549 L 169,551 L 169,552 L 167,554 L 167,555 L 165,557 L 165,558 L 163,560 L 163,561 L 161,563 L 161,564 L 160,565 L 158,562 L 158,559 L 157,558 L 157,556 L 156,555 L 156,553 L 155,552 L 155,549 L 154,548 L 154,546 L 153,545 L 153,544 L 155,542 L 157,542 L 158,541 L 161,540 L 167,534 L 167,533 L 169,531 L 169,529 L 170,528 L 170,526 L 171,525 L 171,523 L 172,522 L 172,519 L 173,518 L 173,513 L 172,512 L 172,510 L 168,506 L 166,506 L 165,505 L 161,505 L 160,504 L 153,504 L 152,505 L 134,505 L 133,506 L 121,506 L 120,507 L 112,507 L 110,510 L 110,512 L 108,515 L 108,517 L 107,518 L 107,520 L 106,521 L 106,523 L 104,526 L 104,528 L 103,529 L 103,531 L 102,532 L 102,534 L 101,535 L 101,537 L 100,538 L 100,540 L 99,541 L 99,543 L 98,544 L 98,546 L 97,547 L 97,549 L 96,550 L 96,552 L 95,553 L 95,555 L 94,556 L 94,558 L 93,559 L 93,561 L 92,562 L 92,564 L 91,565 L 91,567 L 90,568 L 91,569 L 93,569 L 94,568 L 114,568 L 114,567 L 115,566 L 115,564 L 116,563 L 116,561 L 118,558 L 118,556 L 119,555 L 119,553 L 120,552 L 120,550 L 121,549 L 121,548 L 123,546 L 128,546 L 130,548 L 130,551 L 131,552 L 131,555 L 132,556 L 132,559 L 133,560 L 133,563 L 134,564 L 134,566 L 135,566 L 136,567 L 143,567 L 144,566 L 160,566 L 161,565 L 177,565 L 178,564 L 183,564 L 186,561 L 186,560 L 188,558 L 189,555 L 191,553 L 198,553 L 199,552 L 212,552 L 213,553 L 213,562 L 214,563 L 218,563 L 219,562 L 237,562 L 237,551 L 236,550 L 236,529 L 235,528 L 235,507 L 234,506 Z M 127,532 L 127,529 L 128,528 L 128,526 L 129,525 L 129,524 L 130,523 L 130,521 L 131,520 L 146,520 L 147,521 L 147,526 L 146,527 L 146,528 L 142,532 L 135,532 L 134,533 L 128,533 Z M 212,518 L 213,519 L 213,537 L 212,538 L 201,538 L 200,537 L 202,535 L 203,532 L 205,530 L 206,527 L 208,525 L 208,524 L 210,522 L 210,521 Z M 778,504 L 775,502 L 767,502 L 766,501 L 737,501 L 736,502 L 733,502 L 732,503 L 730,503 L 728,505 L 727,505 L 723,509 L 723,510 L 721,513 L 721,515 L 720,516 L 720,518 L 719,519 L 719,521 L 718,522 L 718,527 L 717,528 L 718,529 L 718,532 L 722,536 L 723,536 L 724,537 L 727,537 L 728,538 L 731,538 L 732,539 L 735,539 L 736,540 L 740,540 L 741,541 L 744,541 L 746,543 L 746,546 L 743,548 L 712,548 L 712,549 L 711,550 L 711,553 L 710,554 L 710,556 L 709,557 L 709,559 L 708,560 L 708,562 L 713,562 L 714,563 L 737,563 L 738,564 L 743,564 L 744,563 L 754,563 L 755,562 L 757,562 L 758,561 L 761,560 L 766,555 L 766,554 L 768,551 L 768,549 L 770,546 L 770,544 L 771,543 L 771,540 L 772,539 L 772,535 L 771,534 L 771,532 L 768,529 L 767,529 L 766,528 L 764,528 L 763,527 L 761,527 L 760,526 L 756,526 L 755,525 L 751,525 L 750,524 L 746,524 L 745,523 L 744,523 L 742,521 L 742,520 L 743,519 L 743,518 L 746,516 L 764,516 L 765,517 L 775,517 L 776,516 L 776,514 L 777,513 L 777,510 L 778,509 Z M 667,501 L 665,503 L 665,504 L 662,509 L 662,511 L 660,514 L 660,516 L 659,517 L 659,519 L 658,520 L 658,522 L 657,523 L 657,525 L 656,526 L 656,529 L 655,530 L 655,532 L 653,535 L 653,537 L 652,538 L 652,541 L 650,544 L 650,546 L 649,547 L 649,549 L 648,550 L 648,552 L 647,553 L 647,555 L 646,556 L 646,559 L 645,560 L 646,561 L 646,562 L 647,563 L 699,563 L 700,562 L 701,562 L 702,561 L 702,559 L 703,558 L 703,556 L 704,555 L 704,553 L 705,552 L 705,550 L 706,549 L 705,548 L 674,548 L 673,547 L 673,546 L 674,545 L 674,543 L 675,542 L 675,540 L 676,539 L 702,539 L 704,536 L 704,534 L 705,533 L 705,531 L 706,530 L 706,527 L 707,526 L 707,525 L 681,525 L 680,524 L 681,523 L 681,521 L 682,520 L 682,518 L 684,516 L 714,516 L 715,515 L 715,513 L 716,512 L 716,510 L 718,507 L 718,504 L 719,503 L 719,502 L 718,501 Z M 660,501 L 653,501 L 652,500 L 607,500 L 606,501 L 602,501 L 602,502 L 601,503 L 601,505 L 600,506 L 600,508 L 599,509 L 599,512 L 597,515 L 598,516 L 613,516 L 614,517 L 614,519 L 613,520 L 613,522 L 612,523 L 612,525 L 611,526 L 611,528 L 610,529 L 610,531 L 609,532 L 609,534 L 608,535 L 608,537 L 607,538 L 607,540 L 606,541 L 606,543 L 605,544 L 605,546 L 604,547 L 604,550 L 603,551 L 603,553 L 602,554 L 602,556 L 601,557 L 601,559 L 600,560 L 600,562 L 608,562 L 609,563 L 613,563 L 614,562 L 615,562 L 616,563 L 617,563 L 618,562 L 619,563 L 622,563 L 623,562 L 623,561 L 624,560 L 624,558 L 625,557 L 625,555 L 626,554 L 626,552 L 627,551 L 627,549 L 628,548 L 628,546 L 629,545 L 629,543 L 630,542 L 630,540 L 631,539 L 631,537 L 632,536 L 632,534 L 633,533 L 633,530 L 634,529 L 634,527 L 635,526 L 635,524 L 636,523 L 636,521 L 637,520 L 637,518 L 639,516 L 655,516 Z M 536,501 L 535,502 L 535,504 L 533,507 L 533,509 L 532,510 L 532,512 L 531,513 L 531,515 L 530,516 L 530,518 L 529,519 L 529,521 L 528,522 L 528,524 L 527,525 L 527,527 L 526,528 L 526,530 L 525,531 L 525,533 L 524,534 L 524,536 L 523,537 L 523,539 L 522,540 L 522,543 L 520,546 L 520,549 L 519,550 L 519,552 L 518,553 L 518,555 L 517,556 L 517,558 L 516,559 L 516,561 L 515,562 L 538,562 L 539,561 L 539,559 L 540,558 L 540,556 L 541,555 L 541,553 L 542,552 L 542,550 L 543,549 L 543,547 L 544,546 L 544,544 L 546,541 L 551,541 L 553,543 L 553,544 L 554,545 L 554,549 L 555,550 L 555,552 L 556,553 L 556,556 L 557,557 L 557,560 L 558,561 L 558,562 L 582,562 L 582,561 L 581,560 L 581,557 L 580,556 L 580,554 L 579,553 L 579,551 L 578,550 L 578,548 L 577,547 L 577,545 L 576,544 L 576,541 L 575,540 L 576,539 L 577,539 L 578,538 L 580,538 L 581,537 L 582,537 L 584,535 L 585,535 L 587,533 L 587,532 L 589,530 L 589,529 L 591,526 L 591,524 L 592,523 L 592,521 L 593,520 L 593,518 L 594,517 L 594,508 L 593,507 L 592,504 L 591,503 L 590,503 L 587,501 L 585,501 L 584,500 L 539,500 L 538,501 Z M 550,527 L 550,525 L 551,524 L 551,522 L 552,521 L 552,519 L 553,518 L 553,516 L 554,515 L 568,515 L 570,517 L 570,519 L 569,520 L 569,522 L 568,523 L 568,524 L 565,527 L 564,527 L 563,528 L 551,528 Z M 327,500 L 305,500 L 304,501 L 304,503 L 303,504 L 303,506 L 302,507 L 302,509 L 301,510 L 301,512 L 300,513 L 300,515 L 299,516 L 299,518 L 298,519 L 298,521 L 297,522 L 297,524 L 296,525 L 296,527 L 295,528 L 295,531 L 293,533 L 292,532 L 292,528 L 291,527 L 291,522 L 290,521 L 290,517 L 289,516 L 289,513 L 288,512 L 288,507 L 287,506 L 287,502 L 285,500 L 274,500 L 273,501 L 261,501 L 261,502 L 259,505 L 259,507 L 258,508 L 258,510 L 257,511 L 257,513 L 256,514 L 256,516 L 254,519 L 254,521 L 253,522 L 253,524 L 252,525 L 252,527 L 251,528 L 251,530 L 250,531 L 250,533 L 248,536 L 248,538 L 247,539 L 247,541 L 246,542 L 246,544 L 245,545 L 245,547 L 243,550 L 243,552 L 242,553 L 242,555 L 241,556 L 241,558 L 240,559 L 240,562 L 243,562 L 244,561 L 261,561 L 262,560 L 262,558 L 263,557 L 263,555 L 264,554 L 264,552 L 266,549 L 266,547 L 267,546 L 267,544 L 268,543 L 268,541 L 269,540 L 269,538 L 270,537 L 270,535 L 271,534 L 271,532 L 273,530 L 274,531 L 274,535 L 275,536 L 275,539 L 276,540 L 276,544 L 277,545 L 277,549 L 278,550 L 278,553 L 279,554 L 279,558 L 280,559 L 280,560 L 306,560 L 308,557 L 308,555 L 309,554 L 309,552 L 310,551 L 310,549 L 311,548 L 311,546 L 312,545 L 312,543 L 313,542 L 313,540 L 315,537 L 315,535 L 316,534 L 316,532 L 317,531 L 317,529 L 318,528 L 318,526 L 319,525 L 319,523 L 320,522 L 320,520 L 321,519 L 321,517 L 322,516 L 322,514 L 323,513 L 323,511 L 324,510 L 324,508 L 325,507 L 325,505 L 326,504 L 326,502 L 327,501 Z M 523,507 L 518,502 L 517,502 L 516,501 L 514,501 L 513,500 L 509,500 L 508,499 L 484,499 L 483,500 L 479,500 L 478,501 L 475,501 L 474,502 L 473,502 L 472,503 L 471,503 L 470,504 L 467,505 L 464,508 L 464,509 L 462,511 L 462,512 L 459,517 L 459,519 L 458,520 L 458,522 L 457,523 L 457,525 L 456,526 L 456,528 L 455,529 L 455,531 L 454,532 L 454,534 L 453,535 L 453,537 L 452,538 L 452,540 L 451,541 L 451,543 L 450,544 L 450,553 L 451,554 L 452,557 L 457,561 L 459,561 L 460,562 L 463,562 L 464,563 L 472,563 L 473,564 L 483,564 L 484,563 L 492,563 L 493,562 L 496,562 L 497,561 L 499,561 L 500,560 L 502,560 L 504,558 L 505,558 L 511,552 L 511,551 L 513,549 L 513,548 L 514,547 L 514,545 L 515,544 L 515,542 L 516,541 L 516,539 L 518,536 L 518,534 L 519,533 L 519,531 L 520,530 L 520,527 L 521,526 L 521,524 L 522,523 L 522,521 L 523,520 L 523,518 L 524,517 L 524,510 L 523,509 Z M 497,515 L 498,516 L 499,519 L 498,520 L 498,522 L 497,523 L 497,526 L 495,529 L 495,531 L 494,532 L 494,535 L 493,536 L 493,538 L 492,539 L 492,541 L 491,542 L 490,545 L 485,548 L 478,548 L 477,547 L 476,547 L 475,546 L 475,541 L 476,540 L 476,538 L 477,537 L 477,535 L 478,534 L 478,532 L 479,531 L 479,529 L 480,528 L 480,526 L 481,525 L 481,523 L 482,522 L 482,521 L 483,520 L 484,517 L 485,516 L 486,516 L 487,515 L 489,515 L 490,514 L 493,514 L 494,515 Z M 454,505 L 451,502 L 450,502 L 449,501 L 447,501 L 446,500 L 434,500 L 433,499 L 432,500 L 431,499 L 423,499 L 422,500 L 401,500 L 400,501 L 398,501 L 398,502 L 396,505 L 396,507 L 394,510 L 394,512 L 393,513 L 393,515 L 392,516 L 392,518 L 391,519 L 391,521 L 390,522 L 390,524 L 389,525 L 389,527 L 388,528 L 388,530 L 387,531 L 387,533 L 386,534 L 386,536 L 385,537 L 385,539 L 384,540 L 384,542 L 383,543 L 383,545 L 382,546 L 382,548 L 381,549 L 381,551 L 380,552 L 380,554 L 378,557 L 378,559 L 377,560 L 377,561 L 399,561 L 400,560 L 400,558 L 401,557 L 401,555 L 402,554 L 402,552 L 403,551 L 403,549 L 405,546 L 405,544 L 407,542 L 429,542 L 430,541 L 435,541 L 436,540 L 438,540 L 439,539 L 441,539 L 443,537 L 444,537 L 448,533 L 448,532 L 450,530 L 450,529 L 451,528 L 451,526 L 452,525 L 452,523 L 453,522 L 453,520 L 454,519 L 454,517 L 455,516 L 455,507 L 454,506 Z M 411,527 L 411,526 L 412,525 L 412,523 L 413,522 L 413,520 L 414,519 L 414,517 L 416,514 L 428,514 L 431,516 L 431,519 L 430,520 L 430,522 L 429,523 L 429,524 L 426,527 L 425,527 L 424,528 L 412,528 Z M 389,501 L 388,500 L 378,500 L 377,499 L 349,499 L 348,500 L 344,500 L 343,501 L 340,501 L 339,502 L 338,502 L 335,505 L 334,505 L 333,506 L 333,507 L 331,509 L 331,510 L 329,513 L 329,515 L 328,516 L 328,518 L 327,519 L 327,521 L 326,522 L 326,530 L 330,534 L 331,534 L 332,535 L 334,535 L 335,536 L 338,536 L 339,537 L 342,537 L 343,538 L 347,538 L 348,539 L 351,539 L 354,542 L 353,543 L 353,544 L 351,546 L 325,546 L 324,545 L 321,545 L 319,548 L 319,550 L 318,551 L 318,553 L 316,556 L 316,560 L 321,560 L 322,561 L 360,561 L 361,560 L 364,560 L 365,559 L 368,558 L 373,553 L 373,552 L 376,547 L 376,545 L 377,544 L 377,542 L 378,541 L 378,539 L 379,538 L 379,532 L 378,531 L 378,530 L 375,527 L 374,527 L 373,526 L 371,526 L 370,525 L 367,525 L 366,524 L 363,524 L 362,523 L 359,523 L 358,522 L 354,522 L 353,521 L 352,521 L 351,520 L 351,517 L 353,515 L 355,515 L 356,514 L 378,514 L 379,515 L 384,515 L 384,514 L 385,513 L 385,511 L 387,508 L 387,506 L 388,505 L 388,503 L 389,502 Z M 898,392 L 898,397 L 899,398 L 899,401 L 900,402 L 900,405 L 901,406 L 901,408 L 902,409 L 902,411 L 903,412 L 903,414 L 904,415 L 904,417 L 905,418 L 906,421 L 911,426 L 913,426 L 914,427 L 919,427 L 920,428 L 936,428 L 937,429 L 962,429 L 963,428 L 963,425 L 962,424 L 962,421 L 961,420 L 961,417 L 960,416 L 960,414 L 959,413 L 959,412 L 958,411 L 958,410 L 957,409 L 956,406 L 951,401 L 950,401 L 948,399 L 947,399 L 946,398 L 944,398 L 943,397 L 940,397 L 939,396 L 935,396 L 934,395 L 929,395 L 928,394 L 920,394 L 919,393 L 912,393 L 911,392 Z M 915,403 L 916,402 L 920,402 L 921,403 L 928,403 L 929,404 L 932,404 L 933,405 L 934,405 L 939,410 L 939,411 L 940,412 L 940,413 L 943,418 L 942,419 L 931,419 L 930,418 L 927,418 L 926,417 L 923,416 L 919,412 L 919,411 L 917,409 L 917,408 L 915,405 Z M 972,327 L 969,330 L 969,331 L 968,332 L 968,334 L 967,335 L 967,341 L 968,342 L 968,349 L 969,350 L 969,357 L 970,358 L 970,364 L 971,365 L 971,372 L 972,373 L 972,380 L 973,381 L 973,388 L 974,389 L 974,396 L 975,397 L 975,404 L 976,405 L 976,412 L 977,413 L 977,417 L 978,418 L 978,420 L 979,421 L 979,422 L 983,426 L 984,426 L 987,428 L 1052,428 L 1053,427 L 1054,427 L 1058,423 L 1058,422 L 1059,421 L 1059,415 L 1060,414 L 1060,379 L 1059,378 L 1059,354 L 1058,353 L 1058,341 L 1057,340 L 1057,338 L 1056,337 L 1056,336 L 1052,332 L 1051,332 L 1050,331 L 1044,331 L 1043,330 L 1035,330 L 1034,329 L 1025,329 L 1024,328 L 1013,328 L 1012,327 L 998,327 L 997,326 L 974,326 L 973,327 Z M 988,404 L 991,402 L 1028,402 L 1029,403 L 1045,403 L 1046,404 L 1048,404 L 1049,405 L 1049,406 L 1046,408 L 1016,408 L 1015,407 L 994,407 L 993,406 L 990,406 Z M 987,384 L 989,382 L 1024,382 L 1025,383 L 1040,383 L 1041,384 L 1047,384 L 1049,386 L 1049,387 L 1048,388 L 1017,388 L 1016,387 L 995,387 L 994,386 L 988,386 L 987,385 Z M 985,364 L 987,362 L 1016,362 L 1017,363 L 1032,363 L 1033,364 L 1043,364 L 1044,365 L 1047,365 L 1049,367 L 1047,369 L 1029,369 L 1028,368 L 1007,368 L 1006,367 L 991,367 L 990,366 L 986,366 L 985,365 Z M 983,344 L 985,342 L 1009,342 L 1010,343 L 1025,343 L 1026,344 L 1035,344 L 1036,345 L 1043,345 L 1044,346 L 1046,346 L 1048,348 L 1046,350 L 1036,350 L 1035,349 L 1019,349 L 1018,348 L 1003,348 L 1002,347 L 991,347 L 990,346 L 985,346 Z M 1136,543 L 1096,526 L 1041,515 L 1057,495 L 1077,495 L 1090,486 L 1095,472 L 1095,441 L 1090,437 L 1083,439 L 912,439 L 892,437 L 910,455 L 963,456 L 967,463 L 974,467 L 1060,467 L 1067,464 L 1071,451 L 1085,451 L 1086,469 L 1083,479 L 1074,485 L 888,485 L 882,477 L 880,432 L 873,406 L 864,390 L 852,378 L 835,370 L 812,371 L 798,378 L 786,389 L 775,405 L 767,425 L 763,444 L 762,469 L 760,470 L 756,466 L 753,459 L 754,439 L 764,404 L 780,378 L 800,361 L 823,352 L 846,352 L 871,362 L 889,378 L 870,355 L 857,347 L 835,342 L 815,345 L 815,313 L 881,327 L 930,345 L 942,356 L 950,368 L 959,391 L 951,342 L 942,328 L 922,318 L 898,310 L 813,291 L 789,204 L 790,197 L 795,193 L 830,195 L 876,202 L 912,210 L 937,219 L 942,224 L 943,229 L 905,218 L 867,211 L 824,206 L 806,206 L 803,209 L 819,266 L 827,275 L 892,282 L 958,293 L 1016,308 L 1058,325 L 1064,335 L 1067,364 L 1067,426 L 1065,433 L 1087,434 L 1090,431 L 1091,418 L 1087,402 L 1074,402 L 1074,352 L 1072,334 L 1068,324 L 1061,317 L 1038,307 L 973,289 L 946,233 L 952,232 L 949,222 L 941,213 L 923,206 L 886,197 L 872,179 L 849,168 L 806,156 L 749,147 L 747,145 L 747,126 L 744,119 L 737,112 L 727,107 L 720,107 L 718,110 L 717,141 L 701,134 L 675,129 L 626,130 L 625,121 L 600,118 L 555,125 L 554,138 L 508,144 L 505,143 L 504,135 L 495,133 L 445,137 L 436,141 L 435,152 L 432,154 L 396,159 L 393,158 L 393,151 L 387,149 L 361,149 L 334,153 L 325,157 L 324,169 L 289,173 L 261,184 L 246,195 L 223,221 L 208,252 L 202,282 L 203,311 L 210,336 L 222,357 L 239,373 L 232,380 L 223,396 L 218,417 L 219,425 L 232,425 L 233,412 L 242,390 L 253,378 L 266,370 L 285,368 L 296,372 L 306,382 L 313,395 L 321,425 L 327,402 L 338,384 L 358,370 L 377,367 L 391,372 L 403,383 L 417,415 L 534,414 L 537,416 L 534,427 L 408,427 L 402,402 L 395,389 L 379,376 L 364,374 L 349,380 L 339,389 L 328,410 L 325,432 L 314,434 L 309,406 L 300,388 L 284,376 L 269,375 L 257,380 L 241,400 L 235,423 L 236,448 L 193,454 L 154,463 L 102,479 L 63,496 L 157,484 L 252,478 L 459,474 L 655,476 L 731,481 L 768,486 L 779,491 L 791,508 L 802,517 L 815,523 L 831,526 L 1015,531 Z M 979,511 L 978,512 L 968,512 L 967,511 L 937,511 L 936,510 L 881,510 L 880,509 L 881,508 L 881,507 L 885,503 L 886,500 L 888,498 L 956,498 L 957,497 L 965,497 L 966,498 L 969,498 L 971,500 L 971,501 L 972,502 L 972,503 L 974,505 L 974,506 Z M 1080,409 L 1082,411 L 1082,414 L 1083,415 L 1083,421 L 1082,422 L 1082,424 L 1079,426 L 1072,426 L 1071,425 L 1071,423 L 1072,422 L 1072,419 L 1073,418 L 1073,416 L 1074,415 L 1075,412 L 1076,411 L 1077,411 L 1079,409 Z M 545,411 L 547,409 L 606,409 L 607,410 L 607,411 L 605,414 L 605,416 L 604,417 L 604,419 L 603,420 L 603,424 L 602,425 L 602,439 L 603,440 L 603,442 L 602,443 L 545,443 L 544,442 L 544,441 L 543,440 L 543,438 L 542,437 L 542,431 L 541,430 L 541,424 L 542,423 L 542,419 L 543,418 L 543,416 L 545,413 Z M 684,421 L 685,420 L 685,419 L 686,418 L 686,417 L 687,416 L 688,413 L 693,408 L 754,408 L 755,409 L 755,410 L 754,411 L 754,414 L 753,415 L 753,419 L 752,420 L 752,426 L 751,427 L 751,448 L 750,449 L 686,449 L 684,447 L 684,445 L 683,444 L 683,438 L 682,437 L 682,432 L 683,431 L 683,425 L 684,424 Z M 669,409 L 669,410 L 665,415 L 665,417 L 664,418 L 664,420 L 663,421 L 663,424 L 662,425 L 662,444 L 663,445 L 663,447 L 662,448 L 619,448 L 618,447 L 618,446 L 617,445 L 617,442 L 616,441 L 616,435 L 615,434 L 615,429 L 616,428 L 616,423 L 617,422 L 617,419 L 618,418 L 618,417 L 619,416 L 619,415 L 620,414 L 621,411 L 623,409 L 667,409 L 668,408 Z M 828,399 L 829,400 L 831,400 L 832,401 L 835,402 L 839,406 L 840,406 L 843,409 L 843,410 L 846,413 L 846,414 L 847,415 L 847,416 L 848,417 L 848,418 L 851,423 L 851,425 L 852,426 L 852,428 L 853,429 L 853,432 L 854,433 L 854,438 L 855,439 L 855,454 L 854,455 L 854,461 L 853,462 L 853,465 L 852,466 L 852,468 L 851,469 L 851,471 L 850,472 L 850,474 L 849,475 L 849,476 L 848,477 L 848,478 L 847,479 L 846,482 L 843,485 L 843,486 L 836,493 L 835,493 L 833,495 L 832,495 L 827,498 L 822,498 L 821,499 L 818,499 L 817,498 L 814,498 L 813,497 L 811,497 L 810,496 L 809,496 L 807,494 L 806,494 L 797,485 L 797,484 L 795,482 L 795,481 L 794,480 L 794,479 L 791,474 L 791,472 L 790,471 L 790,469 L 789,468 L 789,465 L 788,464 L 788,460 L 787,459 L 787,440 L 788,439 L 788,435 L 789,434 L 789,431 L 790,430 L 790,428 L 791,427 L 791,425 L 792,424 L 792,423 L 793,422 L 793,421 L 794,420 L 794,419 L 795,418 L 796,415 L 798,413 L 798,412 L 807,403 L 808,403 L 813,400 L 815,400 L 816,399 Z M 820,410 L 819,411 L 816,411 L 815,412 L 814,412 L 813,413 L 810,414 L 806,418 L 806,419 L 804,421 L 804,422 L 803,423 L 803,424 L 800,429 L 800,431 L 799,432 L 799,435 L 798,436 L 798,440 L 798,439 L 799,438 L 799,435 L 800,434 L 801,431 L 803,429 L 803,428 L 809,422 L 810,422 L 813,420 L 820,420 L 823,422 L 820,424 L 818,424 L 817,425 L 816,425 L 810,431 L 810,432 L 808,435 L 808,437 L 807,438 L 807,441 L 806,442 L 806,454 L 807,455 L 807,458 L 808,459 L 808,460 L 809,461 L 810,464 L 814,469 L 815,469 L 817,471 L 819,471 L 820,472 L 826,472 L 827,473 L 821,479 L 820,479 L 819,480 L 816,480 L 815,481 L 811,481 L 813,483 L 814,483 L 817,485 L 826,485 L 827,484 L 829,484 L 830,483 L 831,483 L 839,475 L 839,474 L 841,472 L 841,471 L 842,470 L 842,468 L 843,467 L 843,465 L 844,464 L 844,462 L 845,461 L 845,457 L 846,456 L 846,438 L 845,437 L 845,434 L 844,433 L 844,430 L 843,429 L 843,428 L 842,427 L 842,426 L 841,425 L 841,424 L 840,423 L 839,420 L 832,413 L 831,413 L 828,411 L 824,411 L 823,410 Z M 826,472 L 827,471 L 828,472 L 827,473 Z M 362,395 L 366,395 L 367,396 L 369,396 L 370,397 L 371,397 L 373,399 L 374,399 L 378,403 L 378,404 L 380,406 L 380,407 L 382,410 L 382,412 L 383,413 L 383,415 L 384,416 L 384,419 L 385,420 L 385,437 L 384,438 L 384,442 L 383,443 L 383,445 L 382,446 L 382,448 L 381,449 L 380,452 L 376,457 L 376,458 L 374,460 L 373,460 L 370,463 L 369,463 L 366,465 L 358,465 L 357,464 L 355,464 L 353,462 L 352,462 L 347,457 L 347,456 L 345,454 L 345,453 L 343,450 L 343,448 L 342,447 L 342,445 L 341,444 L 341,440 L 340,439 L 340,424 L 341,423 L 341,420 L 342,419 L 342,416 L 344,413 L 344,411 L 345,410 L 346,407 L 349,404 L 349,403 L 353,399 L 354,399 L 356,397 L 357,397 L 358,396 L 361,396 Z M 361,405 L 360,406 L 359,406 L 354,411 L 354,412 L 352,415 L 352,417 L 353,416 L 353,415 L 356,412 L 357,412 L 360,410 L 361,410 L 364,412 L 362,414 L 361,414 L 358,417 L 358,418 L 356,420 L 356,422 L 355,423 L 355,437 L 356,438 L 356,440 L 357,441 L 357,442 L 361,446 L 363,446 L 366,448 L 362,452 L 361,452 L 360,453 L 358,453 L 358,454 L 360,454 L 361,455 L 365,455 L 366,454 L 368,454 L 374,448 L 374,447 L 377,442 L 377,440 L 378,439 L 378,435 L 379,434 L 379,424 L 378,423 L 378,419 L 377,418 L 377,416 L 376,415 L 375,412 L 373,410 L 373,409 L 370,406 L 369,406 L 368,405 Z M 269,395 L 273,395 L 274,396 L 277,396 L 279,398 L 280,398 L 285,403 L 285,404 L 287,406 L 287,407 L 289,410 L 289,412 L 290,413 L 290,416 L 291,417 L 291,420 L 292,421 L 292,435 L 291,436 L 291,441 L 290,442 L 290,444 L 289,445 L 289,447 L 287,450 L 287,452 L 285,454 L 285,455 L 278,462 L 277,462 L 274,464 L 265,464 L 264,463 L 263,463 L 261,461 L 260,461 L 256,457 L 256,456 L 254,454 L 254,453 L 251,448 L 251,445 L 250,444 L 250,441 L 249,440 L 249,422 L 250,421 L 250,418 L 251,417 L 251,415 L 252,414 L 252,412 L 253,411 L 253,410 L 254,409 L 255,406 L 264,397 L 265,397 L 266,396 L 268,396 Z M 269,405 L 268,406 L 267,406 L 262,411 L 262,412 L 261,413 L 261,415 L 260,416 L 260,418 L 260,417 L 266,411 L 268,411 L 269,410 L 272,412 L 270,414 L 269,414 L 265,419 L 265,421 L 264,422 L 264,424 L 263,425 L 263,435 L 264,436 L 264,439 L 265,440 L 265,441 L 270,446 L 273,446 L 274,447 L 274,448 L 271,451 L 270,451 L 269,452 L 267,452 L 267,453 L 268,454 L 275,454 L 280,450 L 280,449 L 282,447 L 282,446 L 284,443 L 284,441 L 285,440 L 285,437 L 286,436 L 286,422 L 285,421 L 285,418 L 284,417 L 284,415 L 283,414 L 282,411 L 277,406 L 276,406 L 275,405 Z M 682,386 L 682,392 L 680,394 L 679,393 L 678,394 L 511,394 L 510,393 L 513,391 L 531,391 L 532,390 L 547,390 L 548,389 L 565,389 L 566,388 L 589,388 L 590,387 L 614,387 L 615,386 L 648,386 L 649,385 L 681,385 Z M 216,262 L 217,261 L 218,262 L 217,263 Z M 213,278 L 214,277 L 214,276 L 215,275 L 216,275 L 218,273 L 219,273 L 220,272 L 223,271 L 225,269 L 226,269 L 227,268 L 228,268 L 233,265 L 235,265 L 236,264 L 238,264 L 239,263 L 241,263 L 242,262 L 244,262 L 245,261 L 247,261 L 248,260 L 250,260 L 251,259 L 255,259 L 256,258 L 259,258 L 260,257 L 266,257 L 267,256 L 280,256 L 281,255 L 287,255 L 288,256 L 300,256 L 301,257 L 307,257 L 308,258 L 312,258 L 313,259 L 317,259 L 318,260 L 321,260 L 322,261 L 324,261 L 325,262 L 328,262 L 329,263 L 331,263 L 332,264 L 334,264 L 335,265 L 337,265 L 338,266 L 339,266 L 340,267 L 342,267 L 345,269 L 347,269 L 352,272 L 354,272 L 355,273 L 356,273 L 357,274 L 358,274 L 359,275 L 360,275 L 361,276 L 362,276 L 363,277 L 364,277 L 365,278 L 366,278 L 367,279 L 368,279 L 369,280 L 372,281 L 374,283 L 375,283 L 376,284 L 379,285 L 381,287 L 382,287 L 383,288 L 386,289 L 388,291 L 391,292 L 396,296 L 399,297 L 401,299 L 402,299 L 407,303 L 410,304 L 412,306 L 413,306 L 418,310 L 421,311 L 423,313 L 424,313 L 426,315 L 427,315 L 432,319 L 435,320 L 437,322 L 440,323 L 445,327 L 446,327 L 447,328 L 450,329 L 452,331 L 455,332 L 457,334 L 458,334 L 459,335 L 460,335 L 461,336 L 462,336 L 463,337 L 464,337 L 465,338 L 466,338 L 467,339 L 468,339 L 469,340 L 470,340 L 471,341 L 472,341 L 473,342 L 474,342 L 475,343 L 476,343 L 477,344 L 478,344 L 483,347 L 485,347 L 488,349 L 490,349 L 493,351 L 495,351 L 496,352 L 498,352 L 499,353 L 501,353 L 502,354 L 505,354 L 506,355 L 509,355 L 510,356 L 513,356 L 514,357 L 518,357 L 519,358 L 527,358 L 528,359 L 548,359 L 549,358 L 557,358 L 558,357 L 562,357 L 563,356 L 566,356 L 567,355 L 570,355 L 571,354 L 573,354 L 574,353 L 576,353 L 577,352 L 579,352 L 580,351 L 582,351 L 583,350 L 584,350 L 585,349 L 586,349 L 587,348 L 588,348 L 589,347 L 590,347 L 591,346 L 592,346 L 593,345 L 596,344 L 598,342 L 599,342 L 601,340 L 602,340 L 606,336 L 607,336 L 618,325 L 618,324 L 622,320 L 622,319 L 625,316 L 627,319 L 627,321 L 628,322 L 628,324 L 629,325 L 629,326 L 630,327 L 630,329 L 632,332 L 630,334 L 630,335 L 616,349 L 615,349 L 611,353 L 610,353 L 605,357 L 602,358 L 600,360 L 599,360 L 598,361 L 597,361 L 592,364 L 590,364 L 587,366 L 585,366 L 584,367 L 582,367 L 581,368 L 579,368 L 578,369 L 576,369 L 575,370 L 573,370 L 572,371 L 569,371 L 568,372 L 564,372 L 563,373 L 559,373 L 558,374 L 552,374 L 551,375 L 543,375 L 542,376 L 502,376 L 501,375 L 493,375 L 492,374 L 487,374 L 486,373 L 481,373 L 480,372 L 476,372 L 475,371 L 472,371 L 471,370 L 468,370 L 467,369 L 464,369 L 463,368 L 461,368 L 460,367 L 458,367 L 457,366 L 455,366 L 452,364 L 448,364 L 447,363 L 439,363 L 438,362 L 430,362 L 429,361 L 420,361 L 419,360 L 407,360 L 406,359 L 350,359 L 349,360 L 314,360 L 313,361 L 281,361 L 280,362 L 260,362 L 259,363 L 256,363 L 255,364 L 253,364 L 248,367 L 246,367 L 241,363 L 243,361 L 244,361 L 245,360 L 246,360 L 251,357 L 253,357 L 254,356 L 257,356 L 258,355 L 262,355 L 263,354 L 273,354 L 274,353 L 295,353 L 296,352 L 324,352 L 325,351 L 365,351 L 366,350 L 397,350 L 398,351 L 412,351 L 413,352 L 422,352 L 423,353 L 431,353 L 432,354 L 437,354 L 436,354 L 435,353 L 434,353 L 433,352 L 432,352 L 427,349 L 425,349 L 420,346 L 418,346 L 417,345 L 416,345 L 415,344 L 414,344 L 409,341 L 407,341 L 406,340 L 405,340 L 404,339 L 402,339 L 397,336 L 395,336 L 394,335 L 393,335 L 392,334 L 390,334 L 387,332 L 385,332 L 384,331 L 382,331 L 381,330 L 379,330 L 378,329 L 376,329 L 375,328 L 374,328 L 373,327 L 371,327 L 370,326 L 367,326 L 366,325 L 364,325 L 363,324 L 360,324 L 359,323 L 357,323 L 356,322 L 353,322 L 352,321 L 349,321 L 348,320 L 345,320 L 344,319 L 340,319 L 339,318 L 335,318 L 334,317 L 330,317 L 329,316 L 322,316 L 321,315 L 309,315 L 308,314 L 296,314 L 295,315 L 283,315 L 282,316 L 275,316 L 274,317 L 271,317 L 270,318 L 267,318 L 266,319 L 263,319 L 262,320 L 260,320 L 259,321 L 257,321 L 256,322 L 255,322 L 254,323 L 252,323 L 251,324 L 250,324 L 249,325 L 246,326 L 244,328 L 241,329 L 238,332 L 237,332 L 228,341 L 228,342 L 226,344 L 224,342 L 224,341 L 221,336 L 221,334 L 219,331 L 219,329 L 218,328 L 218,326 L 217,325 L 217,323 L 216,322 L 216,319 L 215,318 L 215,314 L 214,313 L 214,308 L 213,307 Z M 221,295 L 221,307 L 222,308 L 222,314 L 223,315 L 223,318 L 224,319 L 224,322 L 225,323 L 225,324 L 226,324 L 229,321 L 230,321 L 233,318 L 234,318 L 239,314 L 240,314 L 245,311 L 247,311 L 250,309 L 252,309 L 253,308 L 255,308 L 256,307 L 258,307 L 259,306 L 262,306 L 263,305 L 267,305 L 268,304 L 275,304 L 276,303 L 307,303 L 308,304 L 316,304 L 317,305 L 322,305 L 323,306 L 327,306 L 328,307 L 332,307 L 333,308 L 337,308 L 338,309 L 340,309 L 341,310 L 344,310 L 345,311 L 348,311 L 349,312 L 351,312 L 352,313 L 355,313 L 356,314 L 358,314 L 359,315 L 361,315 L 362,316 L 364,316 L 365,317 L 367,317 L 368,318 L 370,318 L 371,319 L 373,319 L 374,320 L 376,320 L 379,322 L 381,322 L 382,323 L 384,323 L 389,326 L 391,326 L 394,328 L 396,328 L 399,330 L 401,330 L 402,331 L 403,331 L 408,334 L 410,334 L 411,335 L 412,335 L 417,338 L 419,338 L 420,339 L 421,339 L 422,340 L 423,340 L 424,341 L 425,341 L 426,342 L 427,342 L 428,343 L 429,343 L 434,346 L 436,346 L 441,349 L 443,349 L 444,350 L 445,350 L 450,353 L 452,353 L 453,354 L 454,354 L 455,355 L 457,355 L 460,357 L 462,357 L 463,358 L 465,358 L 466,359 L 468,359 L 469,360 L 471,360 L 472,361 L 475,361 L 476,362 L 479,362 L 480,363 L 484,363 L 485,364 L 488,364 L 489,365 L 493,365 L 491,365 L 490,364 L 488,364 L 485,362 L 483,362 L 482,361 L 480,361 L 479,360 L 478,360 L 473,357 L 471,357 L 470,356 L 469,356 L 468,355 L 467,355 L 466,354 L 465,354 L 464,353 L 463,353 L 462,352 L 461,352 L 460,351 L 459,351 L 458,350 L 457,350 L 456,349 L 455,349 L 454,348 L 453,348 L 452,347 L 451,347 L 450,346 L 449,346 L 448,345 L 447,345 L 446,344 L 443,343 L 441,341 L 440,341 L 439,340 L 438,340 L 437,339 L 436,339 L 435,338 L 434,338 L 433,337 L 432,337 L 431,336 L 428,335 L 426,333 L 425,333 L 424,332 L 423,332 L 422,331 L 419,330 L 417,328 L 416,328 L 415,327 L 414,327 L 413,326 L 410,325 L 408,323 L 407,323 L 406,322 L 405,322 L 404,321 L 403,321 L 402,320 L 399,319 L 397,317 L 396,317 L 395,316 L 394,316 L 393,315 L 392,315 L 391,314 L 390,314 L 389,313 L 388,313 L 387,312 L 386,312 L 385,311 L 382,310 L 380,308 L 379,308 L 378,307 L 377,307 L 376,306 L 375,306 L 374,305 L 373,305 L 372,304 L 371,304 L 370,303 L 369,303 L 368,302 L 367,302 L 366,301 L 365,301 L 364,300 L 363,300 L 362,299 L 361,299 L 356,296 L 354,296 L 353,295 L 352,295 L 351,294 L 350,294 L 345,291 L 343,291 L 342,290 L 341,290 L 338,288 L 336,288 L 333,286 L 331,286 L 330,285 L 328,285 L 327,284 L 325,284 L 324,283 L 322,283 L 321,282 L 319,282 L 318,281 L 316,281 L 315,280 L 312,280 L 311,279 L 308,279 L 307,278 L 303,278 L 302,277 L 298,277 L 297,276 L 290,276 L 289,275 L 266,275 L 265,276 L 259,276 L 258,277 L 255,277 L 254,278 L 250,278 L 249,279 L 247,279 L 246,280 L 244,280 L 243,281 L 241,281 L 240,282 L 239,282 L 238,283 L 237,283 L 236,284 L 235,284 L 234,285 L 231,286 L 229,288 L 228,288 L 225,291 L 224,291 L 222,293 L 222,294 Z M 696,155 L 697,156 L 700,156 L 701,157 L 703,157 L 704,158 L 703,159 L 700,159 L 699,160 L 694,160 L 693,161 L 691,161 L 690,162 L 689,162 L 688,163 L 685,164 L 683,166 L 682,166 L 675,173 L 675,174 L 673,176 L 673,177 L 672,178 L 672,179 L 669,184 L 669,186 L 668,187 L 668,190 L 667,191 L 667,195 L 666,196 L 666,202 L 665,203 L 665,225 L 664,226 L 664,338 L 665,339 L 665,346 L 666,347 L 666,352 L 667,353 L 667,356 L 666,357 L 661,352 L 661,351 L 658,348 L 658,347 L 657,346 L 656,343 L 654,341 L 654,340 L 653,339 L 653,338 L 652,337 L 652,336 L 649,331 L 649,329 L 648,328 L 648,326 L 646,323 L 646,321 L 645,320 L 645,318 L 644,317 L 644,314 L 643,313 L 643,310 L 642,309 L 642,306 L 641,305 L 641,300 L 640,299 L 640,293 L 639,292 L 639,284 L 638,283 L 638,265 L 637,264 L 637,243 L 638,242 L 638,228 L 639,227 L 639,219 L 640,218 L 640,213 L 641,212 L 641,208 L 642,207 L 642,204 L 643,203 L 643,200 L 644,199 L 644,197 L 645,196 L 645,194 L 646,193 L 646,191 L 647,190 L 647,188 L 648,187 L 648,186 L 649,185 L 649,184 L 650,183 L 650,182 L 651,181 L 651,180 L 652,179 L 653,176 L 656,173 L 656,172 L 660,168 L 660,167 L 662,165 L 663,165 L 667,161 L 668,161 L 669,160 L 670,160 L 675,157 L 677,157 L 678,156 L 681,156 L 682,155 Z M 683,141 L 682,142 L 676,142 L 675,143 L 671,143 L 670,144 L 667,144 L 666,145 L 664,145 L 663,146 L 662,146 L 661,147 L 660,147 L 659,148 L 658,148 L 657,149 L 654,150 L 651,153 L 650,153 L 642,161 L 642,162 L 639,165 L 639,166 L 637,168 L 637,169 L 636,170 L 635,173 L 633,175 L 633,176 L 631,179 L 631,181 L 629,184 L 629,186 L 627,189 L 627,191 L 626,192 L 626,195 L 625,196 L 625,198 L 624,199 L 624,202 L 623,203 L 623,206 L 622,207 L 622,211 L 621,212 L 621,217 L 620,218 L 620,225 L 619,226 L 619,235 L 618,236 L 618,277 L 619,278 L 619,288 L 620,289 L 620,292 L 619,293 L 618,293 L 616,295 L 615,295 L 614,296 L 613,296 L 612,297 L 611,297 L 606,300 L 604,300 L 601,302 L 599,302 L 598,303 L 597,303 L 596,304 L 594,304 L 593,305 L 590,305 L 589,306 L 586,306 L 585,307 L 581,307 L 580,308 L 574,308 L 573,309 L 542,309 L 541,308 L 535,308 L 534,307 L 530,307 L 529,306 L 526,306 L 525,305 L 522,305 L 521,304 L 518,304 L 517,303 L 515,303 L 514,302 L 512,302 L 509,300 L 507,300 L 504,298 L 502,298 L 501,297 L 500,297 L 499,296 L 498,296 L 497,295 L 496,295 L 495,294 L 494,294 L 493,293 L 492,293 L 491,292 L 490,292 L 489,291 L 488,291 L 487,290 L 486,290 L 485,289 L 484,289 L 483,288 L 482,288 L 481,287 L 478,286 L 476,284 L 475,284 L 474,283 L 471,282 L 469,280 L 468,280 L 467,279 L 466,279 L 464,277 L 463,277 L 462,276 L 459,275 L 457,273 L 456,273 L 455,272 L 452,271 L 450,269 L 447,268 L 445,266 L 444,266 L 443,265 L 442,265 L 441,264 L 438,263 L 436,261 L 435,261 L 434,260 L 433,260 L 432,259 L 431,259 L 430,258 L 429,258 L 428,257 L 427,257 L 426,256 L 425,256 L 424,255 L 423,255 L 422,254 L 421,254 L 420,253 L 419,253 L 418,252 L 417,252 L 416,251 L 415,251 L 414,250 L 413,250 L 412,249 L 411,249 L 410,248 L 409,248 L 404,245 L 402,245 L 397,242 L 395,242 L 392,240 L 390,240 L 389,239 L 387,239 L 384,237 L 382,237 L 381,236 L 379,236 L 378,235 L 376,235 L 375,234 L 372,234 L 371,233 L 369,233 L 368,232 L 365,232 L 364,231 L 361,231 L 360,230 L 357,230 L 356,229 L 352,229 L 351,228 L 347,228 L 346,227 L 341,227 L 340,226 L 332,226 L 331,225 L 299,225 L 298,226 L 291,226 L 290,227 L 286,227 L 285,228 L 281,228 L 280,229 L 277,229 L 276,230 L 273,230 L 272,231 L 270,231 L 269,232 L 267,232 L 266,233 L 264,233 L 263,234 L 261,234 L 256,237 L 254,237 L 253,238 L 252,238 L 251,239 L 248,240 L 246,242 L 245,242 L 244,243 L 241,244 L 239,246 L 238,246 L 236,248 L 235,248 L 233,250 L 232,250 L 218,262 L 217,261 L 217,259 L 218,258 L 218,255 L 219,254 L 219,252 L 221,249 L 221,247 L 222,246 L 222,244 L 223,243 L 223,242 L 224,241 L 224,240 L 225,239 L 225,238 L 226,237 L 227,234 L 229,232 L 230,229 L 232,227 L 232,226 L 234,224 L 234,223 L 237,220 L 237,219 L 241,215 L 241,214 L 254,201 L 255,201 L 259,197 L 260,197 L 262,195 L 263,195 L 268,191 L 269,191 L 270,190 L 271,190 L 276,187 L 278,187 L 281,185 L 283,185 L 284,184 L 286,184 L 287,183 L 291,183 L 292,182 L 298,182 L 299,181 L 304,181 L 305,180 L 311,180 L 312,179 L 317,179 L 318,178 L 324,178 L 325,177 L 331,177 L 332,176 L 337,176 L 338,175 L 344,175 L 345,174 L 351,174 L 352,173 L 358,173 L 359,172 L 365,172 L 366,171 L 373,171 L 374,170 L 379,170 L 380,169 L 386,169 L 387,168 L 394,168 L 395,167 L 401,167 L 402,166 L 408,166 L 409,165 L 415,165 L 416,164 L 422,164 L 423,163 L 430,163 L 431,162 L 437,162 L 438,161 L 444,161 L 445,160 L 451,160 L 452,159 L 458,159 L 459,158 L 466,158 L 467,157 L 473,157 L 474,156 L 481,156 L 482,155 L 489,155 L 490,154 L 496,154 L 497,153 L 504,153 L 505,152 L 512,152 L 513,151 L 519,151 L 520,150 L 527,150 L 528,149 L 535,149 L 536,148 L 543,148 L 544,147 L 551,147 L 552,146 L 559,146 L 560,145 L 567,145 L 568,144 L 576,144 L 577,143 L 585,143 L 586,142 L 594,142 L 595,141 L 605,141 L 606,140 L 618,140 L 619,139 L 647,139 L 648,138 L 669,138 L 670,139 L 676,139 L 677,140 L 682,140 Z M 551,166 L 550,166 L 550,167 L 547,170 L 547,171 L 545,173 L 545,174 L 542,177 L 542,178 L 540,180 L 540,181 L 537,184 L 537,185 L 535,187 L 535,188 L 532,191 L 532,192 L 530,194 L 530,195 L 527,198 L 527,199 L 525,201 L 525,202 L 523,204 L 523,205 L 519,210 L 519,211 L 518,212 L 518,213 L 516,215 L 515,218 L 513,220 L 513,221 L 512,222 L 512,223 L 511,224 L 511,225 L 508,230 L 508,232 L 506,235 L 506,238 L 505,239 L 505,242 L 504,243 L 504,247 L 503,248 L 503,257 L 504,258 L 504,263 L 505,264 L 505,266 L 506,267 L 506,269 L 507,270 L 507,271 L 508,272 L 508,273 L 509,274 L 510,277 L 519,286 L 520,286 L 525,290 L 526,290 L 527,291 L 529,291 L 532,293 L 534,293 L 535,294 L 539,294 L 540,295 L 558,295 L 559,294 L 562,294 L 563,293 L 565,293 L 566,292 L 567,292 L 568,291 L 569,291 L 570,290 L 571,290 L 572,289 L 575,288 L 577,286 L 578,286 L 586,278 L 586,277 L 588,275 L 588,274 L 589,273 L 589,272 L 592,267 L 592,265 L 593,264 L 593,260 L 594,259 L 594,246 L 593,245 L 593,241 L 592,240 L 592,238 L 591,237 L 591,235 L 590,234 L 590,232 L 589,231 L 589,230 L 588,229 L 588,228 L 587,227 L 587,226 L 586,225 L 586,224 L 585,223 L 585,222 L 584,221 L 583,218 L 581,216 L 580,213 L 578,211 L 577,208 L 575,206 L 575,205 L 574,204 L 574,203 L 572,201 L 571,198 L 567,193 L 567,192 L 566,191 L 566,190 L 564,188 L 563,185 L 559,180 L 558,177 L 556,175 L 556,174 L 552,169 Z M 538,204 L 539,204 L 540,205 L 539,206 L 539,207 L 536,212 L 536,214 L 535,215 L 535,217 L 534,218 L 534,220 L 533,221 L 533,223 L 532,224 L 532,227 L 531,228 L 531,232 L 530,233 L 530,239 L 529,240 L 529,252 L 530,253 L 530,257 L 531,258 L 531,260 L 532,261 L 532,263 L 533,264 L 533,265 L 534,266 L 535,269 L 537,271 L 537,272 L 543,278 L 544,278 L 546,280 L 546,281 L 545,282 L 539,282 L 538,281 L 535,281 L 534,280 L 532,280 L 531,279 L 530,279 L 528,277 L 527,277 L 521,271 L 521,270 L 519,268 L 519,267 L 518,266 L 518,264 L 517,263 L 517,261 L 516,260 L 516,245 L 517,244 L 517,240 L 518,239 L 518,237 L 519,236 L 519,235 L 520,234 L 520,232 L 521,231 L 521,230 L 522,229 L 522,228 L 523,227 L 524,224 L 526,222 L 527,219 L 529,217 L 529,216 L 531,214 L 531,213 L 534,210 L 534,209 L 537,206 L 537,205 Z M 729,118 L 730,118 L 731,119 L 732,119 L 734,121 L 735,121 L 738,124 L 738,125 L 739,126 L 739,128 L 740,129 L 740,158 L 738,160 L 739,161 L 742,161 L 743,162 L 746,162 L 747,163 L 749,163 L 754,166 L 756,166 L 758,168 L 759,168 L 760,169 L 763,170 L 765,172 L 768,173 L 770,175 L 771,175 L 771,174 L 769,172 L 769,171 L 767,169 L 767,168 L 759,160 L 760,159 L 768,159 L 769,160 L 776,160 L 777,161 L 784,161 L 785,162 L 791,162 L 792,163 L 797,163 L 798,164 L 803,164 L 804,165 L 808,165 L 809,166 L 813,166 L 814,167 L 818,167 L 819,168 L 822,168 L 823,169 L 827,169 L 828,170 L 831,170 L 832,171 L 835,171 L 836,172 L 839,172 L 840,173 L 842,173 L 843,174 L 845,174 L 846,175 L 848,175 L 849,176 L 852,176 L 855,178 L 857,178 L 858,179 L 859,179 L 860,180 L 861,180 L 862,181 L 865,182 L 875,192 L 875,193 L 876,194 L 875,195 L 874,195 L 873,194 L 868,194 L 867,193 L 863,193 L 862,192 L 856,192 L 855,191 L 850,191 L 849,190 L 844,190 L 843,189 L 837,189 L 836,188 L 829,188 L 828,187 L 820,187 L 819,186 L 810,186 L 809,185 L 796,185 L 795,184 L 760,184 L 759,185 L 747,185 L 746,186 L 739,186 L 738,187 L 732,187 L 731,188 L 726,188 L 725,189 L 722,189 L 721,190 L 717,190 L 716,191 L 714,191 L 713,192 L 712,192 L 720,192 L 721,191 L 744,191 L 745,192 L 757,192 L 758,193 L 765,193 L 766,194 L 770,194 L 771,195 L 773,195 L 775,197 L 776,197 L 779,200 L 779,201 L 781,203 L 781,204 L 783,207 L 783,209 L 784,210 L 784,212 L 785,213 L 785,216 L 786,217 L 786,219 L 787,220 L 787,223 L 788,224 L 788,227 L 789,228 L 789,231 L 790,232 L 790,234 L 791,235 L 791,238 L 792,239 L 792,242 L 793,243 L 793,246 L 794,247 L 794,250 L 795,251 L 795,254 L 796,255 L 796,259 L 797,260 L 797,263 L 798,264 L 798,267 L 799,268 L 799,272 L 800,273 L 800,278 L 801,279 L 801,284 L 802,285 L 802,350 L 801,351 L 800,351 L 799,352 L 798,352 L 797,353 L 794,354 L 792,356 L 791,356 L 789,358 L 788,358 L 783,363 L 782,363 L 775,370 L 775,371 L 772,374 L 772,375 L 769,378 L 769,379 L 767,381 L 767,382 L 766,383 L 766,384 L 765,385 L 765,386 L 764,387 L 764,388 L 761,393 L 698,393 L 697,392 L 697,253 L 698,252 L 698,221 L 699,220 L 699,211 L 700,210 L 700,205 L 701,204 L 701,201 L 702,200 L 702,196 L 703,195 L 703,193 L 704,192 L 704,190 L 705,189 L 705,187 L 707,184 L 707,182 L 709,180 L 710,177 L 713,174 L 713,173 L 719,167 L 720,167 L 723,164 L 726,163 L 726,162 L 727,161 L 727,127 L 728,126 L 728,119 Z M 722,301 L 722,306 L 723,307 L 723,308 L 724,308 L 725,309 L 742,309 L 743,308 L 744,308 L 746,305 L 746,302 L 744,299 L 743,299 L 742,298 L 738,298 L 737,297 L 728,297 L 727,298 L 725,298 L 724,299 L 723,299 L 723,300 Z M 713,221 L 713,247 L 712,248 L 712,298 L 711,299 L 711,351 L 712,352 L 712,354 L 713,355 L 713,356 L 716,359 L 717,359 L 718,360 L 747,360 L 748,361 L 766,361 L 767,360 L 775,360 L 774,359 L 773,359 L 770,357 L 768,357 L 767,356 L 731,356 L 730,357 L 721,357 L 720,356 L 719,356 L 716,353 L 716,352 L 715,351 L 715,305 L 714,304 L 714,221 Z M 728,208 L 726,210 L 726,211 L 725,212 L 725,229 L 724,230 L 724,265 L 725,266 L 725,268 L 729,272 L 731,272 L 732,273 L 738,273 L 739,274 L 746,274 L 747,275 L 755,275 L 756,276 L 763,276 L 764,277 L 772,277 L 773,278 L 782,278 L 783,277 L 784,277 L 786,275 L 786,274 L 787,273 L 787,268 L 786,267 L 786,264 L 785,263 L 785,260 L 784,259 L 784,255 L 783,254 L 783,251 L 782,250 L 782,247 L 781,246 L 781,243 L 780,242 L 780,239 L 779,238 L 779,235 L 778,234 L 778,231 L 777,230 L 777,227 L 776,226 L 776,223 L 775,222 L 775,219 L 774,218 L 774,215 L 773,214 L 772,211 L 770,209 L 769,209 L 766,207 L 730,207 L 729,208 Z M 929,204 L 912,176 L 909,173 L 905,166 L 892,150 L 892,149 L 877,133 L 877,132 L 863,118 L 862,118 L 840,98 L 811,77 L 808,76 L 803,72 L 793,67 L 791,65 L 780,60 L 778,58 L 774,56 L 772,56 L 754,47 L 752,47 L 749,45 L 742,43 L 739,41 L 737,41 L 709,31 L 706,31 L 698,28 L 695,28 L 694,27 L 691,27 L 690,26 L 687,26 L 682,24 L 678,24 L 673,22 L 669,22 L 668,21 L 664,21 L 663,20 L 659,20 L 658,19 L 653,19 L 652,18 L 647,18 L 646,17 L 641,17 L 640,16 L 633,16 L 632,15 L 625,15 L 624,14 L 615,14 L 614,13 L 603,13 L 602,12 L 554,11 L 553,12 L 533,12 L 532,13 L 521,13 L 520,14 L 511,14 L 510,15 L 502,15 L 501,16 L 488,17 L 487,18 L 482,18 L 481,19 L 476,19 L 475,20 L 471,20 L 470,21 L 456,23 L 455,24 L 452,24 L 451,25 L 448,25 L 447,26 L 444,26 L 443,27 L 440,27 L 439,28 L 424,31 L 417,34 L 414,34 L 413,35 L 390,42 L 387,44 L 382,45 L 379,47 L 377,47 L 374,49 L 367,51 L 362,54 L 360,54 L 353,58 L 351,58 L 305,82 L 300,86 L 292,90 L 271,104 L 268,107 L 264,109 L 244,124 L 225,141 L 224,141 L 214,151 L 213,151 L 185,180 L 185,181 L 173,194 L 173,195 L 169,199 L 157,215 L 137,246 L 119,281 L 119,283 L 116,288 L 116,290 L 110,303 L 110,305 L 103,324 L 103,327 L 100,334 L 98,345 L 97,346 L 97,350 L 96,351 L 96,355 L 95,356 L 95,360 L 94,361 L 94,366 L 93,367 L 93,372 L 92,373 L 91,391 L 90,392 L 90,439 L 91,440 L 91,450 L 92,451 L 92,458 L 93,459 L 93,464 L 94,465 L 94,471 L 96,472 L 120,463 L 120,461 L 119,460 L 119,417 L 120,416 L 121,398 L 122,397 L 123,386 L 124,385 L 124,381 L 125,380 L 125,376 L 126,375 L 126,371 L 127,370 L 130,355 L 133,348 L 133,345 L 134,344 L 139,327 L 141,324 L 141,322 L 145,314 L 145,312 L 148,307 L 148,305 L 151,300 L 151,298 L 166,269 L 168,267 L 175,254 L 185,239 L 207,210 L 221,195 L 221,194 L 248,167 L 249,167 L 271,147 L 272,147 L 281,139 L 301,124 L 316,114 L 319,113 L 324,109 L 332,105 L 334,103 L 368,85 L 370,85 L 379,80 L 381,80 L 386,77 L 388,77 L 401,71 L 406,70 L 409,68 L 411,68 L 427,62 L 430,62 L 437,59 L 444,58 L 452,55 L 456,55 L 457,54 L 460,54 L 461,53 L 464,53 L 469,51 L 473,51 L 474,50 L 478,50 L 479,49 L 484,49 L 485,48 L 489,48 L 490,47 L 494,47 L 495,46 L 501,46 L 502,45 L 508,45 L 509,44 L 516,44 L 517,43 L 524,43 L 525,42 L 551,41 L 552,40 L 602,40 L 603,41 L 628,42 L 629,43 L 636,43 L 637,44 L 644,44 L 645,45 L 651,45 L 652,46 L 663,47 L 664,48 L 668,48 L 669,49 L 673,49 L 674,50 L 678,50 L 679,51 L 683,51 L 684,52 L 699,55 L 703,57 L 713,59 L 714,60 L 734,66 L 737,68 L 739,68 L 750,73 L 752,73 L 789,91 L 791,93 L 798,96 L 800,98 L 813,105 L 847,129 L 851,133 L 857,137 L 864,144 L 865,144 L 872,151 L 873,151 L 896,174 L 896,175 L 915,196 L 919,202 L 924,203 L 929,205 Z" fill="#FFFFFF" fill-rule="evenodd"/>
</svg>